<svg width="799" height="414" viewBox="0 0 799 414" fill="none" xmlns="http://www.w3.org/2000/svg">
<mask id="mask0_93_8967" style="mask-type:alpha" maskUnits="userSpaceOnUse" x="0" y="0" width="799" height="414">
<rect x="799" y="414" width="799" height="414" rx="20" transform="rotate(-180 799 414)" fill="#2D4D76"/>
</mask>
<g mask="url(#mask0_93_8967)">
<g opacity="0.1">
<mask id="mask1_93_8967" style="mask-type:luminance" maskUnits="userSpaceOnUse" x="-86" y="244" width="2589" height="180">
<path d="M2503 423.265L2503 244.284L-86 244.284L-86 423.264L2503 423.265Z" fill="white"/>
</mask>
<g mask="url(#mask1_93_8967)">
<path d="M108.889 244.284C102.539 244.284 97.4072 249.415 97.4072 255.764L120.328 255.764C120.328 249.415 115.196 244.284 108.846 244.284" fill="#8DC8E5"/>
<path d="M131.809 267.2C138.158 267.2 143.291 262.068 143.291 255.72L120.37 255.72C120.37 262.068 125.502 267.2 131.852 267.2" fill="#8DC8E5"/>
<path d="M154.73 244.284C148.38 244.284 143.248 249.415 143.248 255.764L166.168 255.764C166.168 249.415 161.037 244.284 154.687 244.284" fill="#8DC8E5"/>
<path d="M177.694 267.2C184.044 267.2 189.176 262.068 189.176 255.72L166.256 255.72C166.256 262.068 171.388 267.2 177.738 267.2" fill="#8DC8E5"/>
<path d="M200.614 244.284C194.264 244.284 189.132 249.415 189.132 255.764L212.052 255.764C212.052 249.415 206.92 244.284 200.57 244.284" fill="#8DC8E5"/>
<path d="M223.535 267.2C229.885 267.2 235.017 262.068 235.017 255.72L212.096 255.72C212.096 262.068 217.229 267.2 223.578 267.2" fill="#8DC8E5"/>
<path d="M246.454 244.284C240.104 244.284 234.972 249.415 234.972 255.764L257.893 255.764C257.893 249.415 252.76 244.284 246.411 244.284" fill="#8DC8E5"/>
<path d="M269.376 267.2C275.726 267.2 280.858 262.068 280.858 255.72L257.937 255.72C257.937 262.068 263.069 267.2 269.419 267.2" fill="#8DC8E5"/>
<path d="M-5.75663 267.2C0.593212 267.2 5.72534 262.068 5.72534 255.72L-17.1951 255.72C-17.1951 262.068 -12.0629 267.2 -5.7131 267.2" fill="#8DC8E5"/>
<path d="M17.2073 244.284C10.8575 244.284 5.72559 249.415 5.72559 255.764L28.6458 255.764C28.6458 249.415 23.5139 244.284 17.164 244.284" fill="#8DC8E5"/>
<path d="M40.1289 267.2C46.4787 267.2 51.6108 262.068 51.6108 255.72L28.6904 255.72C28.6904 262.068 33.8226 267.2 40.1724 267.2" fill="#8DC8E5"/>
<path d="M63.0481 244.284C56.6983 244.284 51.5662 249.415 51.5662 255.764L74.4866 255.764C74.4866 249.415 69.3544 244.284 63.0046 244.284" fill="#8DC8E5"/>
<path d="M85.9677 267.2C92.3176 267.2 97.4497 262.068 97.4497 255.72L74.5293 255.72C74.5293 262.068 79.6614 267.2 86.0113 267.2" fill="#8DC8E5"/>
<path d="M108.889 275.158C102.539 275.158 97.4072 280.289 97.4072 286.595L120.328 286.595C120.328 280.289 115.196 275.158 108.846 275.158" fill="#8DC8E5"/>
<path d="M131.809 298.074C138.158 298.074 143.291 292.942 143.291 286.594L120.37 286.594C120.37 292.942 125.502 298.074 131.852 298.074" fill="#8DC8E5"/>
<path d="M154.73 275.158C148.38 275.158 143.248 280.289 143.248 286.595L166.168 286.595C166.168 280.289 161.037 275.158 154.687 275.158" fill="#8DC8E5"/>
<path d="M177.694 298.074C184.044 298.074 189.176 292.942 189.176 286.594L166.256 286.594C166.256 292.942 171.388 298.074 177.738 298.074" fill="#8DC8E5"/>
<path d="M200.614 275.158C194.264 275.158 189.132 280.289 189.132 286.595L212.052 286.595C212.052 280.289 206.92 275.158 200.57 275.158" fill="#8DC8E5"/>
<path d="M223.535 298.074C229.885 298.074 235.017 292.942 235.017 286.594L212.096 286.594C212.096 292.942 217.229 298.074 223.578 298.074" fill="#8DC8E5"/>
<path d="M246.454 275.158C240.104 275.158 234.972 280.289 234.972 286.595L257.893 286.595C257.893 280.289 252.76 275.158 246.411 275.158" fill="#8DC8E5"/>
<path d="M269.376 298.074C275.726 298.074 280.858 292.942 280.858 286.594L257.937 286.594C257.937 292.942 263.069 298.074 269.419 298.074" fill="#8DC8E5"/>
<path d="M-5.75663 298.074C0.593212 298.074 5.72534 292.942 5.72534 286.594L-17.1951 286.594C-17.1951 292.942 -12.0629 298.074 -5.7131 298.074" fill="#8DC8E5"/>
<path d="M17.2073 275.157C10.8575 275.157 5.72559 280.288 5.72559 286.594L28.6458 286.594C28.6458 280.288 23.5139 275.157 17.164 275.157" fill="#8DC8E5"/>
<path d="M40.1289 298.074C46.4787 298.074 51.6108 292.942 51.6108 286.594L28.6904 286.594C28.6904 292.942 33.8226 298.074 40.1724 298.074" fill="#8DC8E5"/>
<path d="M63.0481 275.157C56.6983 275.157 51.5662 280.288 51.5662 286.594L74.4866 286.594C74.4866 280.288 69.3544 275.157 63.0046 275.157" fill="#8DC8E5"/>
<path d="M85.9677 298.074C92.3176 298.074 97.4497 292.942 97.4497 286.594L74.5293 286.594C74.5293 292.942 79.6614 298.074 86.0113 298.074" fill="#8DC8E5"/>
<path d="M108.889 305.988C102.539 305.988 97.4072 311.119 97.4072 317.468L120.328 317.468C120.328 311.119 115.196 305.988 108.846 305.988" fill="#8DC8E5"/>
<path d="M131.809 328.948C138.158 328.948 143.291 323.817 143.291 317.468L120.37 317.468C120.37 323.817 125.502 328.948 131.852 328.948" fill="#8DC8E5"/>
<path d="M154.73 305.988C148.38 305.988 143.248 311.119 143.248 317.468L166.168 317.468C166.168 311.119 161.037 305.988 154.687 305.988" fill="#8DC8E5"/>
<path d="M177.694 328.948C184.044 328.948 189.176 323.817 189.176 317.468L166.256 317.468C166.256 323.817 171.388 328.948 177.738 328.948" fill="#8DC8E5"/>
<path d="M200.614 305.988C194.264 305.988 189.132 311.119 189.132 317.468L212.052 317.468C212.052 311.119 206.92 305.988 200.57 305.988" fill="#8DC8E5"/>
<path d="M223.535 328.948C229.885 328.948 235.017 323.817 235.017 317.468L212.096 317.468C212.096 323.817 217.229 328.948 223.578 328.948" fill="#8DC8E5"/>
<path d="M246.454 305.988C240.104 305.988 234.972 311.119 234.972 317.468L257.893 317.468C257.893 311.119 252.76 305.988 246.411 305.988" fill="#8DC8E5"/>
<path d="M269.376 328.948C275.726 328.948 280.858 323.817 280.858 317.468L257.937 317.468C257.937 323.817 263.069 328.948 269.419 328.948" fill="#8DC8E5"/>
<path d="M-5.75663 328.948C0.593212 328.948 5.72534 323.817 5.72534 317.468L-17.1951 317.468C-17.1951 323.817 -12.0629 328.948 -5.7131 328.948" fill="#8DC8E5"/>
<path d="M17.2073 305.988C10.8575 305.988 5.72559 311.119 5.72559 317.468L28.6458 317.468C28.6458 311.119 23.5139 305.988 17.164 305.988" fill="#8DC8E5"/>
<path d="M40.1289 328.948C46.4787 328.948 51.6108 323.817 51.6108 317.468L28.6904 317.468C28.6904 323.817 33.8226 328.948 40.1724 328.948" fill="#8DC8E5"/>
<path d="M63.0481 305.988C56.6983 305.988 51.5662 311.119 51.5662 317.468L74.4866 317.468C74.4866 311.119 69.3544 305.988 63.0046 305.988" fill="#8DC8E5"/>
<path d="M85.9677 328.948C92.3176 328.948 97.4497 323.817 97.4497 317.468L74.5293 317.468C74.5293 323.817 79.6614 328.948 86.0113 328.948" fill="#8DC8E5"/>
<path d="M108.889 336.862C102.539 336.862 97.4072 341.993 97.4072 348.342L120.328 348.342C120.328 341.993 115.196 336.862 108.846 336.862" fill="#8DC8E5"/>
<path d="M131.809 359.778C138.158 359.778 143.291 354.647 143.291 348.298L120.37 348.298C120.37 354.647 125.502 359.778 131.852 359.778" fill="#8DC8E5"/>
<path d="M154.73 336.862C148.38 336.862 143.248 341.993 143.248 348.342L166.168 348.342C166.168 341.993 161.037 336.862 154.687 336.862" fill="#8DC8E5"/>
<path d="M177.694 359.778C184.044 359.778 189.176 354.647 189.176 348.298L166.256 348.298C166.256 354.647 171.388 359.778 177.738 359.778" fill="#8DC8E5"/>
<path d="M200.614 336.862C194.264 336.862 189.132 341.993 189.132 348.342L212.052 348.342C212.052 341.993 206.92 336.862 200.57 336.862" fill="#8DC8E5"/>
<path d="M223.535 359.778C229.885 359.778 235.017 354.647 235.017 348.298L212.096 348.298C212.096 354.647 217.229 359.778 223.578 359.778" fill="#8DC8E5"/>
<path d="M246.454 336.862C240.104 336.862 234.972 341.993 234.972 348.342L257.893 348.342C257.893 341.993 252.76 336.862 246.411 336.862" fill="#8DC8E5"/>
<path d="M269.376 359.778C275.726 359.778 280.858 354.647 280.858 348.298L257.937 348.298C257.937 354.647 263.069 359.778 269.419 359.778" fill="#8DC8E5"/>
<path d="M-5.75663 359.778C0.593212 359.778 5.72534 354.647 5.72534 348.298L-17.1951 348.298C-17.1951 354.647 -12.0629 359.778 -5.7131 359.778" fill="#8DC8E5"/>
<path d="M17.2073 336.862C10.8575 336.862 5.72559 341.993 5.72559 348.342L28.6458 348.342C28.6458 341.993 23.5139 336.862 17.164 336.862" fill="#8DC8E5"/>
<path d="M40.1289 359.777C46.4787 359.777 51.6108 354.646 51.6108 348.297L28.6904 348.297C28.6904 354.646 33.8226 359.777 40.1724 359.777" fill="#8DC8E5"/>
<path d="M63.0481 336.862C56.6983 336.862 51.5662 341.993 51.5662 348.342L74.4866 348.342C74.4866 341.993 69.3544 336.862 63.0046 336.862" fill="#8DC8E5"/>
<path d="M85.9677 359.778C92.3176 359.778 97.4497 354.647 97.4497 348.298L74.5293 348.298C74.5293 354.647 79.6614 359.778 86.0113 359.778" fill="#8DC8E5"/>
<path d="M475.746 244.284C469.396 244.284 464.264 249.415 464.264 255.764L487.184 255.764C487.184 249.415 482.052 244.284 475.702 244.284" fill="#8DC8E5"/>
<path d="M498.665 267.2C505.015 267.2 510.147 262.068 510.147 255.72L487.227 255.72C487.227 262.068 492.359 267.2 498.709 267.2" fill="#8DC8E5"/>
<path d="M521.587 244.284C515.237 244.284 510.105 249.415 510.105 255.764L533.025 255.764C533.025 249.415 527.893 244.284 521.587 244.284Z" fill="#8DC8E5"/>
<path d="M292.295 244.284C285.945 244.284 280.813 249.415 280.813 255.764L303.734 255.764C303.734 249.415 298.602 244.284 292.252 244.284" fill="#8DC8E5"/>
<path d="M315.259 267.2C321.609 267.2 326.741 262.068 326.741 255.72L303.821 255.72C303.821 262.068 308.953 267.2 315.303 267.2" fill="#8DC8E5"/>
<path d="M338.181 244.284C331.831 244.284 326.699 249.415 326.699 255.764L349.619 255.764C349.619 249.415 344.487 244.284 338.137 244.284" fill="#8DC8E5"/>
<path d="M361.1 267.2C367.45 267.2 372.582 262.068 372.582 255.72L349.662 255.72C349.662 262.068 354.794 267.2 361.144 267.2" fill="#8DC8E5"/>
<path d="M384.019 244.284C377.669 244.284 372.537 249.415 372.537 255.764L395.458 255.764C395.458 249.415 390.326 244.284 383.976 244.284" fill="#8DC8E5"/>
<path d="M406.941 267.2C413.291 267.2 418.423 262.068 418.423 255.72L395.502 255.72C395.502 262.068 400.635 267.2 406.984 267.2" fill="#8DC8E5"/>
<path d="M429.86 244.284C423.511 244.284 418.378 249.415 418.378 255.764L441.299 255.764C441.299 249.415 436.167 244.284 429.817 244.284" fill="#8DC8E5"/>
<path d="M452.782 267.2C459.132 267.2 464.264 262.068 464.264 255.72L441.344 255.72C441.344 262.068 446.476 267.2 452.826 267.2" fill="#8DC8E5"/>
<path d="M475.746 275.158C469.396 275.158 464.264 280.289 464.264 286.595L487.184 286.595C487.184 280.289 482.052 275.158 475.702 275.158" fill="#8DC8E5"/>
<path d="M498.665 298.074C505.015 298.074 510.147 292.942 510.147 286.594L487.227 286.594C487.227 292.942 492.359 298.074 498.709 298.074" fill="#8DC8E5"/>
<path d="M521.587 275.158C515.237 275.158 510.105 280.289 510.105 286.595L533.025 286.595C533.025 280.289 527.893 275.158 521.587 275.158Z" fill="#8DC8E5"/>
<path d="M292.295 275.158C285.945 275.158 280.813 280.289 280.813 286.595L303.734 286.595C303.734 280.289 298.602 275.158 292.252 275.158" fill="#8DC8E5"/>
<path d="M315.259 298.074C321.609 298.074 326.741 292.942 326.741 286.594L303.821 286.594C303.821 292.942 308.953 298.074 315.303 298.074" fill="#8DC8E5"/>
<path d="M338.181 275.158C331.831 275.158 326.699 280.289 326.699 286.595L349.619 286.595C349.619 280.289 344.487 275.158 338.137 275.158" fill="#8DC8E5"/>
<path d="M361.1 298.074C367.45 298.074 372.582 292.942 372.582 286.594L349.662 286.594C349.662 292.942 354.794 298.074 361.144 298.074" fill="#8DC8E5"/>
<path d="M384.019 275.158C377.669 275.158 372.537 280.289 372.537 286.595L395.458 286.595C395.458 280.289 390.326 275.158 383.976 275.158" fill="#8DC8E5"/>
<path d="M406.941 298.074C413.291 298.074 418.423 292.942 418.423 286.594L395.502 286.594C395.502 292.942 400.635 298.074 406.984 298.074" fill="#8DC8E5"/>
<path d="M429.86 275.158C423.511 275.158 418.378 280.289 418.378 286.595L441.299 286.595C441.299 280.289 436.167 275.158 429.817 275.158" fill="#8DC8E5"/>
<path d="M452.782 298.074C459.132 298.074 464.264 292.942 464.264 286.594L441.344 286.594C441.344 292.942 446.476 298.074 452.826 298.074" fill="#8DC8E5"/>
<path d="M475.746 305.988C469.396 305.988 464.264 311.119 464.264 317.468L487.184 317.468C487.184 311.119 482.052 305.988 475.702 305.988" fill="#8DC8E5"/>
<path d="M498.665 328.948C505.015 328.948 510.147 323.817 510.147 317.468L487.227 317.468C487.227 323.817 492.359 328.948 498.709 328.948" fill="#8DC8E5"/>
<path d="M521.587 305.988C515.237 305.988 510.105 311.119 510.105 317.468L533.025 317.468C533.025 311.119 527.893 305.988 521.587 305.988Z" fill="#8DC8E5"/>
<path d="M292.295 305.988C285.945 305.988 280.813 311.119 280.813 317.468L303.734 317.468C303.734 311.119 298.602 305.988 292.252 305.988" fill="#8DC8E5"/>
<path d="M315.259 328.948C321.609 328.948 326.741 323.817 326.741 317.468L303.821 317.468C303.821 323.817 308.953 328.948 315.303 328.948" fill="#8DC8E5"/>
<path d="M338.181 305.988C331.831 305.988 326.699 311.119 326.699 317.468L349.619 317.468C349.619 311.119 344.487 305.988 338.137 305.988" fill="#8DC8E5"/>
<path d="M361.1 328.948C367.45 328.948 372.582 323.817 372.582 317.468L349.662 317.468C349.662 323.817 354.794 328.948 361.144 328.948" fill="#8DC8E5"/>
<path d="M384.019 305.988C377.669 305.988 372.537 311.119 372.537 317.468L395.458 317.468C395.458 311.119 390.326 305.988 383.976 305.988" fill="#8DC8E5"/>
<path d="M406.941 328.948C413.291 328.948 418.423 323.817 418.423 317.468L395.502 317.468C395.502 323.817 400.635 328.948 406.984 328.948" fill="#8DC8E5"/>
<path d="M429.86 305.988C423.511 305.988 418.378 311.119 418.378 317.468L441.299 317.468C441.299 311.119 436.167 305.988 429.817 305.988" fill="#8DC8E5"/>
<path d="M452.782 328.948C459.132 328.948 464.264 323.817 464.264 317.468L441.344 317.468C441.344 323.817 446.476 328.948 452.826 328.948" fill="#8DC8E5"/>
<path d="M475.746 336.862C469.396 336.862 464.264 341.993 464.264 348.342L487.184 348.342C487.184 341.993 482.052 336.862 475.702 336.862" fill="#8DC8E5"/>
<path d="M498.665 359.778C505.015 359.778 510.147 354.647 510.147 348.298L487.227 348.298C487.227 354.647 492.359 359.778 498.709 359.778" fill="#8DC8E5"/>
<path d="M521.587 336.862C515.237 336.862 510.105 341.993 510.105 348.342L533.025 348.342C533.025 341.993 527.893 336.862 521.587 336.862Z" fill="#8DC8E5"/>
<path d="M292.295 336.862C285.945 336.862 280.813 341.993 280.813 348.342L303.734 348.342C303.734 341.993 298.602 336.862 292.252 336.862" fill="#8DC8E5"/>
<path d="M315.259 359.778C321.609 359.778 326.741 354.647 326.741 348.298L303.821 348.298C303.821 354.647 308.953 359.778 315.303 359.778" fill="#8DC8E5"/>
<path d="M338.181 336.862C331.831 336.862 326.699 341.993 326.699 348.342L349.619 348.342C349.619 341.993 344.487 336.862 338.137 336.862" fill="#8DC8E5"/>
<path d="M361.1 359.778C367.45 359.778 372.582 354.647 372.582 348.298L349.662 348.298C349.662 354.647 354.794 359.778 361.144 359.778" fill="#8DC8E5"/>
<path d="M384.019 336.862C377.669 336.862 372.537 341.993 372.537 348.342L395.458 348.342C395.458 341.993 390.326 336.862 383.976 336.862" fill="#8DC8E5"/>
<path d="M406.941 359.778C413.291 359.778 418.423 354.647 418.423 348.298L395.502 348.298C395.502 354.647 400.635 359.778 406.984 359.778" fill="#8DC8E5"/>
<path d="M429.86 336.862C423.511 336.862 418.378 341.993 418.378 348.342L441.299 348.342C441.299 341.993 436.167 336.862 429.817 336.862" fill="#8DC8E5"/>
<path d="M452.782 359.778C459.132 359.778 464.264 354.647 464.264 348.298L441.344 348.298C441.344 354.647 446.476 359.778 452.826 359.778" fill="#8DC8E5"/>
<path d="M704.993 244.284C698.643 244.284 693.511 249.415 693.511 255.764L716.431 255.764C716.431 249.415 711.299 244.284 704.949 244.284" fill="#8DC8E5"/>
<path d="M727.912 267.2C734.262 267.2 739.394 262.068 739.394 255.72L716.474 255.72C716.474 262.068 721.606 267.2 727.956 267.2" fill="#8DC8E5"/>
<path d="M750.876 244.284C744.526 244.284 739.394 249.415 739.394 255.764L762.314 255.764C762.314 249.415 757.182 244.284 750.833 244.284" fill="#8DC8E5"/>
<path d="M773.797 267.2C780.147 267.2 785.279 262.068 785.279 255.72L762.359 255.72C762.359 262.068 767.491 267.2 773.841 267.2" fill="#8DC8E5"/>
<path d="M796.717 244.284C790.367 244.284 785.235 249.415 785.235 255.764L808.155 255.764C808.155 249.415 803.023 244.284 796.674 244.284" fill="#8DC8E5"/>
<path d="M521.587 244.284C515.237 244.284 510.105 249.415 510.105 255.764L533.025 255.764C533.025 249.415 527.893 244.284 521.587 244.284Z" fill="#8DC8E5"/>
<path d="M544.506 267.2C550.856 267.2 555.988 262.068 555.988 255.72L533.068 255.72C533.068 262.068 538.2 267.2 544.55 267.2" fill="#8DC8E5"/>
<path d="M567.428 244.284C561.078 244.284 555.946 249.415 555.946 255.764L578.866 255.764C578.866 249.415 573.734 244.284 567.384 244.284" fill="#8DC8E5"/>
<path d="M590.348 267.2C596.698 267.2 601.786 262.068 601.786 255.72L578.866 255.72C578.866 262.068 583.998 267.2 590.348 267.2Z" fill="#8DC8E5"/>
<path d="M613.311 244.284C606.961 244.284 601.829 249.415 601.829 255.764L624.749 255.764C624.749 249.415 619.617 244.284 613.267 244.284" fill="#8DC8E5"/>
<path d="M636.23 267.2C642.58 267.2 647.712 262.068 647.712 255.72L624.792 255.72C624.792 262.068 629.924 267.2 636.274 267.2" fill="#8DC8E5"/>
<path d="M659.152 244.284C652.802 244.284 647.67 249.415 647.67 255.764L670.59 255.764C670.59 249.415 665.458 244.284 659.152 244.284Z" fill="#8DC8E5"/>
<path d="M682.071 267.2C688.421 267.2 693.553 262.068 693.553 255.72L670.633 255.72C670.633 262.068 675.765 267.2 682.115 267.2" fill="#8DC8E5"/>
<path d="M704.993 275.158C698.643 275.158 693.511 280.289 693.511 286.595L716.431 286.595C716.431 280.289 711.299 275.158 704.949 275.158" fill="#8DC8E5"/>
<path d="M727.912 298.074C734.262 298.074 739.394 292.942 739.394 286.594L716.474 286.594C716.474 292.942 721.606 298.074 727.956 298.074" fill="#8DC8E5"/>
<path d="M750.876 275.158C744.526 275.158 739.394 280.289 739.394 286.595L762.314 286.595C762.314 280.289 757.182 275.158 750.833 275.158" fill="#8DC8E5"/>
<path d="M773.797 298.074C780.147 298.074 785.279 292.942 785.279 286.594L762.359 286.594C762.359 292.942 767.491 298.074 773.841 298.074" fill="#8DC8E5"/>
<path d="M796.717 275.158C790.367 275.158 785.235 280.289 785.235 286.595L808.155 286.595C808.155 280.289 803.023 275.158 796.674 275.158" fill="#8DC8E5"/>
<path d="M521.587 275.158C515.237 275.158 510.105 280.289 510.105 286.595L533.025 286.595C533.025 280.289 527.893 275.158 521.587 275.158Z" fill="#8DC8E5"/>
<path d="M544.506 298.074C550.856 298.074 555.988 292.942 555.988 286.594L533.068 286.594C533.068 292.942 538.2 298.074 544.55 298.074" fill="#8DC8E5"/>
<path d="M567.428 275.158C561.078 275.158 555.946 280.289 555.946 286.595L578.866 286.595C578.866 280.289 573.734 275.158 567.384 275.158" fill="#8DC8E5"/>
<path d="M590.348 298.074C596.698 298.074 601.786 292.942 601.786 286.594L578.866 286.594C578.866 292.942 583.998 298.074 590.348 298.074Z" fill="#8DC8E5"/>
<path d="M613.311 275.158C606.961 275.158 601.829 280.289 601.829 286.595L624.749 286.595C624.749 280.289 619.617 275.158 613.267 275.158" fill="#8DC8E5"/>
<path d="M636.23 298.074C642.58 298.074 647.712 292.942 647.712 286.594L624.792 286.594C624.792 292.942 629.924 298.074 636.274 298.074" fill="#8DC8E5"/>
<path d="M659.152 275.158C652.802 275.158 647.67 280.289 647.67 286.595L670.59 286.595C670.59 280.289 665.458 275.158 659.152 275.158Z" fill="#8DC8E5"/>
<path d="M682.071 298.074C688.421 298.074 693.553 292.942 693.553 286.594L670.633 286.594C670.633 292.942 675.765 298.074 682.115 298.074" fill="#8DC8E5"/>
<path d="M704.993 305.988C698.643 305.988 693.511 311.119 693.511 317.468L716.431 317.468C716.431 311.119 711.299 305.988 704.949 305.988" fill="#8DC8E5"/>
<path d="M727.912 328.948C734.262 328.948 739.394 323.817 739.394 317.468L716.474 317.468C716.474 323.817 721.606 328.948 727.956 328.948" fill="#8DC8E5"/>
<path d="M750.876 305.988C744.526 305.988 739.394 311.119 739.394 317.468L762.314 317.468C762.314 311.119 757.182 305.988 750.833 305.988" fill="#8DC8E5"/>
<path d="M773.797 328.948C780.147 328.948 785.279 323.817 785.279 317.468L762.359 317.468C762.359 323.817 767.491 328.948 773.841 328.948" fill="#8DC8E5"/>
<path d="M796.717 305.988C790.367 305.988 785.235 311.119 785.235 317.468L808.155 317.468C808.155 311.119 803.023 305.988 796.674 305.988" fill="#8DC8E5"/>
<path d="M521.587 305.988C515.237 305.988 510.105 311.119 510.105 317.468L533.025 317.468C533.025 311.119 527.893 305.988 521.587 305.988Z" fill="#8DC8E5"/>
<path d="M544.506 328.948C550.856 328.948 555.988 323.817 555.988 317.468L533.068 317.468C533.068 323.817 538.2 328.948 544.55 328.948" fill="#8DC8E5"/>
<path d="M567.428 305.988C561.078 305.988 555.946 311.119 555.946 317.468L578.866 317.468C578.866 311.119 573.734 305.988 567.384 305.988" fill="#8DC8E5"/>
<path d="M590.348 328.948C596.698 328.948 601.786 323.817 601.786 317.468L578.866 317.468C578.866 323.817 583.998 328.948 590.348 328.948Z" fill="#8DC8E5"/>
<path d="M613.311 305.988C606.961 305.988 601.829 311.119 601.829 317.468L624.749 317.468C624.749 311.119 619.617 305.988 613.267 305.988" fill="#8DC8E5"/>
<path d="M636.23 328.948C642.58 328.948 647.712 323.817 647.712 317.468L624.792 317.468C624.792 323.817 629.924 328.948 636.274 328.948" fill="#8DC8E5"/>
<path d="M659.152 305.988C652.802 305.988 647.67 311.119 647.67 317.468L670.59 317.468C670.59 311.119 665.458 305.988 659.152 305.988Z" fill="#8DC8E5"/>
<path d="M682.071 328.948C688.421 328.948 693.553 323.817 693.553 317.468L670.633 317.468C670.633 323.817 675.765 328.948 682.115 328.948" fill="#8DC8E5"/>
<path d="M704.993 336.862C698.643 336.862 693.511 341.993 693.511 348.342L716.431 348.342C716.431 341.993 711.299 336.862 704.949 336.862" fill="#8DC8E5"/>
<path d="M727.912 359.777C734.262 359.777 739.394 354.646 739.394 348.297L716.474 348.297C716.474 354.646 721.606 359.777 727.956 359.777" fill="#8DC8E5"/>
<path d="M750.876 336.862C744.526 336.862 739.394 341.993 739.394 348.342L762.314 348.342C762.314 341.993 757.182 336.862 750.833 336.862" fill="#8DC8E5"/>
<path d="M773.797 359.778C780.147 359.778 785.279 354.647 785.279 348.298L762.359 348.298C762.359 354.647 767.491 359.778 773.841 359.778" fill="#8DC8E5"/>
<path d="M796.717 336.862C790.367 336.862 785.235 341.993 785.235 348.342L808.155 348.342C808.155 341.993 803.023 336.862 796.674 336.862" fill="#8DC8E5"/>
<path d="M521.587 336.862C515.237 336.862 510.105 341.993 510.105 348.342L533.025 348.342C533.025 341.993 527.893 336.862 521.587 336.862Z" fill="#8DC8E5"/>
<path d="M544.506 359.778C550.856 359.778 555.988 354.647 555.988 348.298L533.068 348.298C533.068 354.647 538.2 359.778 544.55 359.778" fill="#8DC8E5"/>
<path d="M567.428 336.862C561.078 336.862 555.946 341.993 555.946 348.342L578.866 348.342C578.866 341.993 573.734 336.862 567.384 336.862" fill="#8DC8E5"/>
<path d="M590.348 359.778C596.698 359.778 601.786 354.647 601.786 348.298L578.866 348.298C578.866 354.647 583.998 359.778 590.348 359.778Z" fill="#8DC8E5"/>
<path d="M613.311 336.862C606.961 336.862 601.829 341.993 601.829 348.342L624.749 348.342C624.749 341.993 619.617 336.862 613.267 336.862" fill="#8DC8E5"/>
<path d="M636.23 359.777C642.58 359.777 647.712 354.646 647.712 348.297L624.792 348.297C624.792 354.646 629.924 359.777 636.274 359.777" fill="#8DC8E5"/>
<path d="M659.152 336.862C652.802 336.862 647.67 341.993 647.67 348.342L670.59 348.342C670.59 341.993 665.458 336.862 659.152 336.862Z" fill="#8DC8E5"/>
<path d="M682.071 359.777C688.421 359.777 693.553 354.646 693.553 348.297L670.633 348.297C670.633 354.646 675.765 359.777 682.115 359.777" fill="#8DC8E5"/>
<path d="M108.889 369.475C102.539 369.475 97.4072 374.606 97.4072 380.955L120.328 380.955C120.328 374.606 115.196 369.475 108.846 369.475" fill="#8DC8E5"/>
<path d="M131.809 392.434C138.158 392.434 143.291 387.303 143.291 380.954L120.37 380.954C120.37 387.303 125.502 392.434 131.852 392.434" fill="#8DC8E5"/>
<path d="M154.73 369.475C148.38 369.475 143.248 374.606 143.248 380.955L166.168 380.955C166.168 374.606 161.037 369.475 154.687 369.475" fill="#8DC8E5"/>
<path d="M177.694 392.434C184.044 392.434 189.176 387.303 189.176 380.954L166.256 380.954C166.256 387.303 171.388 392.434 177.738 392.434" fill="#8DC8E5"/>
<path d="M200.614 369.475C194.264 369.475 189.132 374.606 189.132 380.954L212.052 380.954C212.052 374.606 206.92 369.475 200.57 369.475" fill="#8DC8E5"/>
<path d="M223.535 392.434C229.885 392.434 235.017 387.303 235.017 380.954L212.096 380.954C212.096 387.303 217.229 392.434 223.578 392.434" fill="#8DC8E5"/>
<path d="M246.454 369.475C240.104 369.475 234.972 374.606 234.972 380.955L257.893 380.955C257.893 374.606 252.76 369.475 246.411 369.475" fill="#8DC8E5"/>
<path d="M269.376 392.434C275.726 392.434 280.858 387.303 280.858 380.954L257.937 380.954C257.937 387.303 263.069 392.434 269.419 392.434" fill="#8DC8E5"/>
<path d="M-5.75663 392.434C0.593212 392.434 5.72534 387.303 5.72534 380.954L-17.1951 380.954C-17.1951 387.303 -12.0629 392.434 -5.7131 392.434" fill="#8DC8E5"/>
<path d="M17.2073 369.475C10.8575 369.475 5.72559 374.606 5.72559 380.954L28.6458 380.954C28.6458 374.606 23.5139 369.475 17.164 369.475" fill="#8DC8E5"/>
<path d="M40.1289 392.434C46.4787 392.434 51.6108 387.303 51.6108 380.954L28.6904 380.954C28.6904 387.303 33.8226 392.434 40.1724 392.434" fill="#8DC8E5"/>
<path d="M63.0481 369.475C56.6983 369.475 51.5662 374.606 51.5662 380.955L74.4866 380.955C74.4866 374.606 69.3544 369.475 63.0046 369.475" fill="#8DC8E5"/>
<path d="M85.9677 392.434C92.3176 392.434 97.4497 387.303 97.4497 380.954L74.5293 380.954C74.5293 387.303 79.6614 392.434 86.0113 392.434" fill="#8DC8E5"/>
<path d="M108.889 400.348C102.539 400.348 97.4072 405.479 97.4072 411.828L120.328 411.828C120.328 405.479 115.196 400.348 108.846 400.348" fill="#8DC8E5"/>
<path d="M131.809 423.264C138.158 423.264 143.291 418.133 143.291 411.828L120.37 411.828C120.37 418.133 125.502 423.264 131.852 423.264" fill="#8DC8E5"/>
<path d="M154.73 400.348C148.38 400.348 143.248 405.479 143.248 411.828L166.168 411.828C166.168 405.479 161.037 400.348 154.687 400.348" fill="#8DC8E5"/>
<path d="M177.694 423.264C184.044 423.264 189.176 418.133 189.176 411.828L166.256 411.828C166.256 418.133 171.388 423.264 177.738 423.264" fill="#8DC8E5"/>
<path d="M200.614 400.348C194.264 400.348 189.132 405.479 189.132 411.828L212.052 411.828C212.052 405.479 206.92 400.348 200.57 400.348" fill="#8DC8E5"/>
<path d="M223.535 423.264C229.885 423.264 235.017 418.133 235.017 411.828L212.096 411.828C212.096 418.133 217.229 423.264 223.578 423.264" fill="#8DC8E5"/>
<path d="M246.454 400.348C240.104 400.348 234.972 405.479 234.972 411.828L257.893 411.828C257.893 405.479 252.76 400.348 246.411 400.348" fill="#8DC8E5"/>
<path d="M269.376 423.264C275.726 423.264 280.858 418.133 280.858 411.828L257.937 411.828C257.937 418.133 263.069 423.264 269.419 423.264" fill="#8DC8E5"/>
<path d="M-5.75663 423.264C0.593212 423.264 5.72534 418.133 5.72534 411.828L-17.1951 411.828C-17.1951 418.133 -12.0629 423.264 -5.7131 423.264" fill="#8DC8E5"/>
<path d="M17.2073 400.348C10.8575 400.348 5.72559 405.479 5.72559 411.827L28.6458 411.827C28.6458 405.479 23.5139 400.348 17.164 400.348" fill="#8DC8E5"/>
<path d="M40.1289 423.264C46.4787 423.264 51.6108 418.133 51.6108 411.828L28.6904 411.828C28.6904 418.133 33.8226 423.264 40.1724 423.264" fill="#8DC8E5"/>
<path d="M63.0481 400.348C56.6983 400.348 51.5662 405.479 51.5662 411.828L74.4866 411.828C74.4866 405.479 69.3544 400.348 63.0046 400.348" fill="#8DC8E5"/>
<path d="M85.9677 423.264C92.3176 423.264 97.4497 418.133 97.4497 411.828L74.5293 411.828C74.5293 418.133 79.6614 423.264 86.0113 423.264" fill="#8DC8E5"/>
<path d="M475.746 369.475C469.396 369.475 464.264 374.606 464.264 380.955L487.184 380.955C487.184 374.606 482.052 369.475 475.702 369.475" fill="#8DC8E5"/>
<path d="M498.665 392.434C505.015 392.434 510.147 387.303 510.147 380.954L487.227 380.954C487.227 387.303 492.359 392.434 498.709 392.434" fill="#8DC8E5"/>
<path d="M521.587 369.475C515.237 369.475 510.105 374.606 510.105 380.955L533.025 380.955C533.025 374.606 527.893 369.475 521.587 369.475Z" fill="#8DC8E5"/>
<path d="M292.295 369.475C285.945 369.475 280.813 374.606 280.813 380.955L303.734 380.955C303.734 374.606 298.602 369.475 292.252 369.475" fill="#8DC8E5"/>
<path d="M315.259 392.434C321.609 392.434 326.741 387.303 326.741 380.954L303.821 380.954C303.821 387.303 308.953 392.434 315.303 392.434" fill="#8DC8E5"/>
<path d="M338.181 369.475C331.831 369.475 326.699 374.606 326.699 380.955L349.619 380.955C349.619 374.606 344.487 369.475 338.137 369.475" fill="#8DC8E5"/>
<path d="M361.1 392.434C367.45 392.434 372.582 387.303 372.582 380.954L349.662 380.954C349.662 387.303 354.794 392.434 361.144 392.434" fill="#8DC8E5"/>
<path d="M384.019 369.475C377.669 369.475 372.537 374.606 372.537 380.954L395.458 380.954C395.458 374.606 390.326 369.475 383.976 369.475" fill="#8DC8E5"/>
<path d="M406.941 392.434C413.291 392.434 418.423 387.303 418.423 380.954L395.502 380.954C395.502 387.303 400.635 392.434 406.984 392.434" fill="#8DC8E5"/>
<path d="M429.86 369.475C423.511 369.475 418.378 374.606 418.378 380.955L441.299 380.955C441.299 374.606 436.167 369.475 429.817 369.475" fill="#8DC8E5"/>
<path d="M452.782 392.434C459.132 392.434 464.264 387.303 464.264 380.954L441.344 380.954C441.344 387.303 446.476 392.434 452.826 392.434" fill="#8DC8E5"/>
<path d="M475.746 400.348C469.396 400.348 464.264 405.479 464.264 411.828L487.184 411.828C487.184 405.479 482.052 400.348 475.702 400.348" fill="#8DC8E5"/>
<path d="M498.665 423.264C505.015 423.264 510.147 418.133 510.147 411.828L487.227 411.828C487.227 418.133 492.359 423.264 498.709 423.264" fill="#8DC8E5"/>
<path d="M521.587 400.348C515.237 400.348 510.105 405.479 510.105 411.828L533.025 411.828C533.025 405.479 527.893 400.348 521.587 400.348Z" fill="#8DC8E5"/>
<path d="M292.295 400.348C285.945 400.348 280.813 405.479 280.813 411.828L303.734 411.828C303.734 405.479 298.602 400.348 292.252 400.348" fill="#8DC8E5"/>
<path d="M315.259 423.264C321.609 423.264 326.741 418.133 326.741 411.828L303.821 411.828C303.821 418.133 308.953 423.264 315.303 423.264" fill="#8DC8E5"/>
<path d="M338.181 400.348C331.831 400.348 326.699 405.479 326.699 411.828L349.619 411.828C349.619 405.479 344.487 400.348 338.137 400.348" fill="#8DC8E5"/>
<path d="M361.1 423.264C367.45 423.264 372.582 418.133 372.582 411.828L349.662 411.828C349.662 418.133 354.794 423.264 361.144 423.264" fill="#8DC8E5"/>
<path d="M384.019 400.348C377.669 400.348 372.537 405.479 372.537 411.828L395.458 411.828C395.458 405.479 390.326 400.348 383.976 400.348" fill="#8DC8E5"/>
<path d="M406.941 423.264C413.291 423.264 418.423 418.133 418.423 411.828L395.502 411.828C395.502 418.133 400.635 423.264 406.984 423.264" fill="#8DC8E5"/>
<path d="M429.86 400.348C423.511 400.348 418.378 405.479 418.378 411.828L441.299 411.828C441.299 405.479 436.167 400.348 429.817 400.348" fill="#8DC8E5"/>
<path d="M452.782 423.264C459.132 423.264 464.264 418.133 464.264 411.828L441.344 411.828C441.344 418.133 446.476 423.264 452.826 423.264" fill="#8DC8E5"/>
<path d="M704.993 369.475C698.643 369.475 693.511 374.606 693.511 380.955L716.431 380.955C716.431 374.606 711.299 369.475 704.949 369.475" fill="#8DC8E5"/>
<path d="M727.912 392.434C734.262 392.434 739.394 387.303 739.394 380.954L716.474 380.954C716.474 387.303 721.606 392.434 727.956 392.434" fill="#8DC8E5"/>
<path d="M750.876 369.475C744.526 369.475 739.394 374.606 739.394 380.955L762.314 380.955C762.314 374.606 757.182 369.475 750.833 369.475" fill="#8DC8E5"/>
<path d="M773.797 392.434C780.147 392.434 785.279 387.303 785.279 380.954L762.359 380.954C762.359 387.303 767.491 392.434 773.841 392.434" fill="#8DC8E5"/>
<path d="M796.717 369.475C790.367 369.475 785.235 374.606 785.235 380.955L808.155 380.955C808.155 374.606 803.023 369.475 796.674 369.475" fill="#8DC8E5"/>
<path d="M521.587 369.475C515.237 369.475 510.105 374.606 510.105 380.955L533.025 380.955C533.025 374.606 527.893 369.475 521.587 369.475Z" fill="#8DC8E5"/>
<path d="M544.506 392.434C550.856 392.434 555.988 387.303 555.988 380.954L533.068 380.954C533.068 387.303 538.2 392.434 544.55 392.434" fill="#8DC8E5"/>
<path d="M567.428 369.475C561.078 369.475 555.946 374.606 555.946 380.954L578.866 380.954C578.866 374.606 573.734 369.475 567.384 369.475" fill="#8DC8E5"/>
<path d="M590.348 392.434C596.698 392.434 601.786 387.303 601.786 380.954L578.866 380.954C578.866 387.303 583.998 392.434 590.348 392.434Z" fill="#8DC8E5"/>
<path d="M613.311 369.475C606.961 369.475 601.829 374.606 601.829 380.955L624.749 380.955C624.749 374.606 619.617 369.475 613.267 369.475" fill="#8DC8E5"/>
<path d="M636.23 392.434C642.58 392.434 647.712 387.303 647.712 380.954L624.792 380.954C624.792 387.303 629.924 392.434 636.274 392.434" fill="#8DC8E5"/>
<path d="M659.152 369.475C652.802 369.475 647.67 374.606 647.67 380.955L670.59 380.955C670.59 374.606 665.458 369.475 659.152 369.475Z" fill="#8DC8E5"/>
<path d="M682.071 392.434C688.421 392.434 693.553 387.303 693.553 380.954L670.633 380.954C670.633 387.303 675.765 392.434 682.115 392.434" fill="#8DC8E5"/>
<path d="M704.993 400.348C698.643 400.348 693.511 405.479 693.511 411.828L716.431 411.828C716.431 405.479 711.299 400.348 704.949 400.348" fill="#8DC8E5"/>
<path d="M727.912 423.264C734.262 423.264 739.394 418.133 739.394 411.828L716.474 411.828C716.474 418.133 721.606 423.264 727.956 423.264" fill="#8DC8E5"/>
<path d="M750.876 400.348C744.526 400.348 739.394 405.479 739.394 411.828L762.314 411.828C762.314 405.479 757.182 400.348 750.833 400.348" fill="#8DC8E5"/>
<path d="M773.797 423.264C780.147 423.264 785.279 418.133 785.279 411.828L762.359 411.828C762.359 418.133 767.491 423.264 773.841 423.264" fill="#8DC8E5"/>
<path d="M796.717 400.348C790.367 400.348 785.235 405.479 785.235 411.828L808.155 411.828C808.155 405.479 803.023 400.348 796.674 400.348" fill="#8DC8E5"/>
<path d="M521.587 400.348C515.237 400.348 510.105 405.479 510.105 411.828L533.025 411.828C533.025 405.479 527.893 400.348 521.587 400.348Z" fill="#8DC8E5"/>
<path d="M544.506 423.264C550.856 423.264 555.988 418.133 555.988 411.828L533.068 411.828C533.068 418.133 538.2 423.264 544.55 423.264" fill="#8DC8E5"/>
<path d="M567.428 400.348C561.078 400.348 555.946 405.479 555.946 411.828L578.866 411.828C578.866 405.479 573.734 400.348 567.384 400.348" fill="#8DC8E5"/>
<path d="M590.348 423.264C596.698 423.264 601.786 418.133 601.786 411.828L578.866 411.828C578.866 418.133 583.998 423.264 590.348 423.264Z" fill="#8DC8E5"/>
<path d="M613.311 400.348C606.961 400.348 601.829 405.479 601.829 411.828L624.749 411.828C624.749 405.479 619.617 400.348 613.267 400.348" fill="#8DC8E5"/>
<path d="M636.23 423.264C642.58 423.264 647.712 418.133 647.712 411.828L624.792 411.828C624.792 418.133 629.924 423.264 636.274 423.264" fill="#8DC8E5"/>
<path d="M659.152 400.348C652.802 400.348 647.67 405.479 647.67 411.828L670.59 411.828C670.59 405.479 665.458 400.348 659.152 400.348Z" fill="#8DC8E5"/>
<path d="M682.071 423.264C688.421 423.264 693.553 418.133 693.553 411.828L670.633 411.828C670.633 418.133 675.765 423.264 682.115 423.264" fill="#8DC8E5"/>
</g>
</g>
</g>
</svg>
