<svg aria-hidden="true" style="position: absolute; width: 0; height: 0; overflow: hidden;" version="1.1" xmlns="http://www.w3.org/2000/svg" xmlns:xlink="http://www.w3.org/1999/xlink">
<defs>
<symbol id="icon-logo" viewBox="0 0 234 32">
<path fill="#fff" style="fill: var(--color1, #fff)" d="M13.104 26.798c0.945-0.812 1.423-2.061 1.423-3.771v-0.376c0-1.686-0.49-2.947-1.459-3.783s-2.439-1.249-4.412-1.249h-4.675v10.392h4.699c1.997 0 3.479-0.4 4.424-1.213zM8.68 13.981c3.264 0 5.727 0.727 7.401 2.195s2.511 3.638 2.511 6.512v0.291c0 2.874-0.837 5.032-2.499 6.487s-4.137 2.183-7.413 2.183h-8.68v-17.667h8.68z"></path>
<path fill="#000" style="fill: var(--color2, #000)" opacity="0.2" d="M13.104 26.798c0.945-0.812 1.423-2.061 1.423-3.771v-0.376c0-1.686-0.49-2.947-1.459-3.783s-2.439-1.249-4.412-1.249h-4.675v10.392h4.699c1.997 0 3.479-0.4 4.424-1.213zM8.68 13.981c3.264 0 5.727 0.727 7.401 2.195s2.511 3.638 2.511 6.512v0.291c0 2.874-0.837 5.032-2.499 6.487s-4.137 2.183-7.413 2.183h-8.68v-17.667h8.68z"></path>
<path fill="#fff" style="fill: var(--color1, #fff)" d="M37.423 13.969v3.565h-11.502v3.492h10.976v3.529h-10.976v3.529h11.502v3.565h-15.483v-17.679h15.483z"></path>
<path fill="#000" style="fill: var(--color2, #000)" opacity="0.2" d="M37.423 13.969v3.565h-11.502v3.492h10.976v3.529h-10.976v3.529h11.502v3.565h-15.483v-17.679h15.483z"></path>
<path fill="#fff" style="fill: var(--color1, #fff)" d="M58.751 13.969v17.679h-3.826l-9.959-11.992v11.992h-3.826v-17.679h3.826l9.959 11.968v-11.968h3.826z"></path>
<path fill="#000" style="fill: var(--color2, #000)" opacity="0.2" d="M58.751 13.969v17.679h-3.826l-9.959-11.992v11.992h-3.826v-17.679h3.826l9.959 11.968v-11.968h3.826z"></path>
<path fill="#fff" style="fill: var(--color1, #fff)" d="M66.81 13.969h-4.017v17.667h4.017v-17.667z"></path>
<path fill="#000" style="fill: var(--color2, #000)" opacity="0.2" d="M66.81 13.969h-4.017v17.667h4.017v-17.667z"></path>
<path fill="#fff" style="fill: var(--color1, #fff)" d="M86.144 17.582l-10.952 10.452h10.952v3.613h-16.26v-3.613l10.94-10.452h-10.94v-3.613h16.26v3.613z"></path>
<path fill="#000" style="fill: var(--color2, #000)" opacity="0.2" d="M86.144 17.582l-10.952 10.452h10.952v3.613h-16.26v-3.613l10.94-10.452h-10.94v-3.613h16.26v3.613z"></path>
<path fill="#fff" style="fill: var(--color1, #fff)" d="M137.087 13.969v3.565h-11.502v3.492h10.964v3.529h-10.964v3.529h11.502v3.565h-15.484v-17.679h15.484z"></path>
<path fill="#000" style="fill: var(--color2, #000)" opacity="0.2" d="M137.087 13.969v3.565h-11.502v3.492h10.964v3.529h-10.964v3.529h11.502v3.565h-15.484v-17.679h15.484z"></path>
<path fill="#fff" style="fill: var(--color1, #fff)" d="M142.503 30.411c-1.482-1.043-2.236-2.571-2.236-4.584v-0.267h3.934v0.267c0 0.861 0.43 1.516 1.279 1.964 0.85 0.449 2.092 0.679 3.719 0.679 1.447 0 2.559-0.158 3.311-0.473 0.754-0.315 1.124-0.776 1.124-1.382v-0.182c0-0.485-0.215-0.861-0.633-1.116-0.419-0.255-1.172-0.473-2.26-0.631l-4.436-0.643c-3.826-0.57-5.739-2.17-5.739-4.79v-0.267c0-1.673 0.717-2.971 2.164-3.904s3.467-1.394 6.073-1.394c2.762 0 4.866 0.509 6.325 1.504 1.447 1.006 2.176 2.462 2.176 4.365v0.243h-3.934v-0.243c0-1.576-1.518-2.377-4.567-2.377-1.363 0-2.402 0.146-3.121 0.437-0.717 0.291-1.076 0.715-1.076 1.261v0.218c0 0.412 0.204 0.74 0.598 0.97 0.395 0.23 1.088 0.424 2.057 0.57l4.459 0.643c2.033 0.303 3.539 0.861 4.495 1.661 0.969 0.8 1.447 1.904 1.447 3.322v0.267c0 1.722-0.753 3.068-2.26 4.026-1.506 0.958-3.634 1.443-6.372 1.443-2.738 0-5.045-0.521-6.528-1.564z"></path>
<path fill="#000" style="fill: var(--color2, #000)" opacity="0.2" d="M142.503 30.411c-1.482-1.043-2.236-2.571-2.236-4.584v-0.267h3.934v0.267c0 0.861 0.43 1.516 1.279 1.964 0.85 0.449 2.092 0.679 3.719 0.679 1.447 0 2.559-0.158 3.311-0.473 0.754-0.315 1.124-0.776 1.124-1.382v-0.182c0-0.485-0.215-0.861-0.633-1.116-0.419-0.255-1.172-0.473-2.26-0.631l-4.436-0.643c-3.826-0.57-5.739-2.17-5.739-4.79v-0.267c0-1.673 0.717-2.971 2.164-3.904s3.467-1.394 6.073-1.394c2.762 0 4.866 0.509 6.325 1.504 1.447 1.006 2.176 2.462 2.176 4.365v0.243h-3.934v-0.243c0-1.576-1.518-2.377-4.567-2.377-1.363 0-2.402 0.146-3.121 0.437-0.717 0.291-1.076 0.715-1.076 1.261v0.218c0 0.412 0.204 0.74 0.598 0.97 0.395 0.23 1.088 0.424 2.057 0.57l4.459 0.643c2.033 0.303 3.539 0.861 4.495 1.661 0.969 0.8 1.447 1.904 1.447 3.322v0.267c0 1.722-0.753 3.068-2.26 4.026-1.506 0.958-3.634 1.443-6.372 1.443-2.738 0-5.045-0.521-6.528-1.564z"></path>
<path fill="#fff" style="fill: var(--color1, #fff)" d="M159.577 17.607v-3.638h17.611v3.638h-6.791v14.042h-4.018v-14.042h-6.803z"></path>
<path fill="#000" style="fill: var(--color2, #000)" opacity="0.2" d="M159.577 17.607v-3.638h17.611v3.638h-6.791v14.042h-4.018v-14.042h-6.803z"></path>
<path fill="#fff" style="fill: var(--color1, #fff)" d="M190.627 24.482l-2.846-6.572-2.846 6.572h5.692zM197.717 31.030v0.618h-3.981l-1.59-3.662h-8.716l-1.59 3.662h-3.981v-0.618l7.723-17.049h4.412l7.736 17.049h-0.012z"></path>
<path fill="#000" style="fill: var(--color2, #000)" opacity="0.2" d="M190.627 24.482l-2.846-6.572-2.846 6.572h5.692zM197.717 31.030v0.618h-3.981l-1.59-3.662h-8.716l-1.59 3.662h-3.981v-0.618l7.723-17.049h4.412l7.736 17.049h-0.012z"></path>
<path fill="#fff" style="fill: var(--color1, #fff)" d="M198.386 17.607v-3.638h17.611v3.638h-6.803v14.042h-4.006v-14.042h-6.803z"></path>
<path fill="#000" style="fill: var(--color2, #000)" opacity="0.2" d="M198.386 17.607v-3.638h17.611v3.638h-6.803v14.042h-4.006v-14.042h-6.803z"></path>
<path fill="#fff" style="fill: var(--color1, #fff)" d="M233.93 13.969v3.565h-11.501v3.492h10.964v3.529h-10.964v3.529h11.501v3.565h-15.495v-17.679h15.495z"></path>
<path fill="#000" style="fill: var(--color2, #000)" opacity="0.2" d="M233.93 13.969v3.565h-11.501v3.492h10.964v3.529h-10.964v3.529h11.501v3.565h-15.495v-17.679h15.495z"></path>
<path fill="#8dc8e5" style="fill: var(--color3, #8dc8e5)" d="M104.89 6.172v1.661h-1.734v-1.661c0-0.327 0.359-0.606 0.801-0.606h0.132c0.442 0 0.801 0.267 0.801 0.606zM107.736 20.747l-0.072-1.491-6.695 1.686c-4.053-1.249-6.982-4.911-6.982-9.47 0-5.651 4.519-10.234 10.091-10.234 3.204 0 6.062 1.516 7.903 3.88l-5.272 1.819-0.191-2.28-2.475-1.576-2.475 1.576-0.442 5.99 5.763-1.601 7.293 2.474c-0.024 4.317-2.678 7.821-6.421 9.216zM104.089 0c-6.241 0-11.298 5.129-11.298 11.459 0 9.943 11.298 20.177 11.298 20.177s11.298-10.804 11.298-20.177c0-6.33-5.057-11.459-11.298-11.459z"></path>
<path fill="#8dc8e5" style="fill: var(--color3, #8dc8e5)" d="M107.115 10.61l-6.253 1.649-0.108 2.219 6.468-1.698-0.108-2.171z"></path>
<path fill="#8dc8e5" style="fill: var(--color3, #8dc8e5)" d="M100.502 16.685l-0.108 2.219 7.174-1.795-0.108-2.183-6.958 1.758z"></path>
</symbol>
<symbol id="icon-inst" viewBox="0 0 32 32">
<path fill="#fff" style="fill: var(--color1, #fff)" d="M14.826 7.214c-4.212 0-7.627 3.415-7.627 7.627s3.415 7.627 7.627 7.627c4.212 0 7.627-3.415 7.627-7.627s-3.415-7.627-7.627-7.627zM14.826 19.792c-2.732 0-4.952-2.22-4.952-4.952s2.22-4.952 4.952-4.952c2.732 0 4.952 2.22 4.952 4.952s-2.22 4.952-4.952 4.952z"></path>
<path fill="#fff" style="fill: var(--color1, #fff)" d="M14.826 2.675c3.97 0 4.439 0.014 6.004 0.085 1.451 0.071 2.234 0.313 2.76 0.512 0.697 0.27 1.181 0.598 1.708 1.11 0.526 0.526 0.839 1.010 1.11 1.707 0.199 0.526 0.441 1.309 0.512 2.76 0.071 1.565 0.085 2.035 0.085 6.004s-0.014 4.439-0.085 6.004c-0.071 1.451-0.313 2.234-0.512 2.76-0.27 0.697-0.598 1.181-1.11 1.707-0.512 0.512-1.010 0.84-1.708 1.11-0.526 0.199-1.309 0.441-2.76 0.512-1.565 0.071-2.035 0.085-6.004 0.085s-4.439-0.014-6.004-0.085c-1.451-0.071-2.234-0.313-2.76-0.512-0.697-0.27-1.181-0.598-1.707-1.11-0.512-0.527-0.839-1.010-1.11-1.707-0.199-0.526-0.441-1.309-0.512-2.76-0.071-1.565-0.085-2.035-0.085-6.004s0.014-4.439 0.085-6.004c0.071-1.451 0.313-2.234 0.512-2.76 0.27-0.697 0.598-1.181 1.11-1.707 0.526-0.526 1.010-0.839 1.707-1.11 0.526-0.199 1.309-0.441 2.76-0.512 1.565-0.071 2.035-0.085 6.004-0.085zM14.826 0c-4.027 0-4.539 0.014-6.118 0.085s-2.661 0.327-3.6 0.697c-0.982 0.384-1.807 0.882-2.632 1.707s-1.337 1.65-1.707 2.632c-0.37 0.939-0.612 2.020-0.683 3.6s-0.085 2.092-0.085 6.118c0 4.027 0.014 4.539 0.085 6.118s0.327 2.661 0.683 3.6c0.384 0.982 0.882 1.807 1.707 2.632s1.651 1.338 2.632 1.708c0.939 0.37 2.020 0.612 3.6 0.697 1.579 0.071 2.092 0.085 6.118 0.085s4.539-0.014 6.118-0.085c1.579-0.071 2.661-0.327 3.6-0.697 0.982-0.384 1.807-0.882 2.632-1.708s1.337-1.65 1.707-2.632c0.37-0.939 0.612-2.020 0.697-3.6 0.071-1.579 0.085-2.092 0.085-6.118s-0.014-4.539-0.085-6.118c-0.071-1.579-0.327-2.661-0.697-3.6-0.384-0.982-0.882-1.807-1.707-2.632s-1.651-1.337-2.632-1.707c-0.939-0.37-2.020-0.612-3.6-0.697-1.579-0.071-2.092-0.085-6.118-0.085z"></path>
</symbol>
<symbol id="icon-youtube" viewBox="0 0 47 32">
<path fill="#fff" style="fill: var(--color1, #fff)" d="M42.802 4.987c-0.502-1.965-1.981-3.514-3.861-4.035-3.416-0.953-17.081-0.953-17.081-0.953s-13.679 0-17.081 0.953c-1.88 0.521-3.359 2.069-3.861 4.035-0.919 3.558-0.919 10.987-0.919 10.987s0 7.429 0.919 10.987c0.502 1.965 1.981 3.514 3.861 4.035 3.416 0.953 17.081 0.953 17.081 0.953s13.679 0 17.081-0.953c1.88-0.521 3.359-2.069 3.861-4.035 0.919-3.558 0.919-10.987 0.919-10.987s0-7.429-0.919-10.987z"></path>
<path fill="#222221" style="fill: var(--color2, #222221)" d="M16.815 23.542v-13.452l11.771 6.726-11.771 6.726z"></path>
</symbol>
<symbol id="icon-viber" viewBox="0 0 35 32">
<path fill="#fff" style="fill: var(--color1, #fff)" d="M31.596 23.542c-0.79-0.387-4.591-2.253-5.297-2.506-0.706-0.269-1.228-0.387-1.749 0.387s-2.018 2.506-2.455 2.993c-0.454 0.521-0.908 0.572-1.682 0.185s-3.262-1.177-6.222-3.817c-2.287-2.018-3.868-4.54-4.305-5.314s-0.050-1.177 0.336-1.564c0.353-0.353 0.774-0.908 1.16-1.345 0.101-0.135 0.185-0.252 0.286-0.37 0.185-0.286 0.303-0.555 0.488-0.925 0.269-0.521 0.135-0.959-0.050-1.345s-1.749-4.17-2.388-5.7c-0.639-1.53-1.278-1.278-1.749-1.278s-0.958-0.067-1.48-0.067c-0.521 0-1.362 0.185-2.068 0.958s-2.707 2.64-2.707 6.424c0 0.891 0.168 1.782 0.404 2.623 0.79 2.707 2.472 4.944 2.758 5.331 0.387 0.504 5.347 8.509 13.217 11.603 7.887 3.060 7.887 2.035 9.299 1.9 1.412-0.118 4.591-1.85 5.213-3.649 0.656-1.782 0.656-3.329 0.454-3.649-0.185-0.303-0.706-0.504-1.48-0.891l0.017 0.017z"></path>
</symbol>
<symbol id="icon-arrow-down-select" viewBox="0 0 40 32">
<path fill="#fff" style="fill: var(--color1, #fff)" d="M20 26.532c-0.478 0-0.942-0.093-1.392-0.28s-0.823-0.435-1.119-0.746l-16.502-17.164c-0.658-0.684-0.987-1.555-0.987-2.612s0.329-1.928 0.987-2.612c0.658-0.684 1.495-1.026 2.511-1.026s1.853 0.342 2.511 1.026l13.991 14.552 13.991-14.552c0.658-0.684 1.495-1.026 2.511-1.026s1.854 0.342 2.511 1.026c0.658 0.684 0.987 1.555 0.987 2.612s-0.329 1.928-0.987 2.612l-16.502 17.164c-0.359 0.373-0.747 0.638-1.166 0.795s-0.867 0.234-1.345 0.231z"></path>
<path fill="#000" style="fill: var(--color2, #000)" opacity="0.2" d="M20 26.532c-0.478 0-0.942-0.093-1.392-0.28s-0.823-0.435-1.119-0.746l-16.502-17.164c-0.658-0.684-0.987-1.555-0.987-2.612s0.329-1.928 0.987-2.612c0.658-0.684 1.495-1.026 2.511-1.026s1.853 0.342 2.511 1.026l13.991 14.552 13.991-14.552c0.658-0.684 1.495-1.026 2.511-1.026s1.854 0.342 2.511 1.026c0.658 0.684 0.987 1.555 0.987 2.612s-0.329 1.928-0.987 2.612l-16.502 17.164c-0.359 0.373-0.747 0.638-1.166 0.795s-0.867 0.234-1.345 0.231z"></path>
</symbol>
<symbol id="icon-tick" viewBox="0 0 41 32">
<path fill="none" stroke="#2d4d76" style="stroke: var(--color1, #2d4d76)" stroke-linejoin="miter" stroke-linecap="butt" stroke-miterlimit="4" stroke-width="5.8182" d="M2.909 14.545l11.636 11.636 23.273-23.273"></path>
</symbol>
</defs>
</svg>
