<svg aria-hidden="true" style="position: absolute; width: 0; height: 0; overflow: hidden;" version="1.1" xmlns="http://www.w3.org/2000/svg" xmlns:xlink="http://www.w3.org/1999/xlink">
<defs>
<symbol id="icon-logo" viewBox="0 0 234 32">
<path fill="#fff" style="fill: var(--color1, #fff)" d="M13.104 26.798c0.945-0.812 1.423-2.061 1.423-3.771v-0.376c0-1.686-0.49-2.947-1.459-3.783s-2.439-1.249-4.412-1.249h-4.675v10.392h4.699c1.997 0 3.479-0.4 4.424-1.213zM8.68 13.981c3.264 0 5.727 0.727 7.401 2.195s2.511 3.638 2.511 6.512v0.291c0 2.874-0.837 5.032-2.499 6.487s-4.137 2.183-7.413 2.183h-8.68v-17.667h8.68z"></path>
<path fill="#000" style="fill: var(--color2, #000)" opacity="0.2" d="M13.104 26.798c0.945-0.812 1.423-2.061 1.423-3.771v-0.376c0-1.686-0.49-2.947-1.459-3.783s-2.439-1.249-4.412-1.249h-4.675v10.392h4.699c1.997 0 3.479-0.4 4.424-1.213zM8.68 13.981c3.264 0 5.727 0.727 7.401 2.195s2.511 3.638 2.511 6.512v0.291c0 2.874-0.837 5.032-2.499 6.487s-4.137 2.183-7.413 2.183h-8.68v-17.667h8.68z"></path>
<path fill="#fff" style="fill: var(--color1, #fff)" d="M37.423 13.969v3.565h-11.502v3.492h10.976v3.529h-10.976v3.529h11.502v3.565h-15.483v-17.679h15.483z"></path>
<path fill="#000" style="fill: var(--color2, #000)" opacity="0.2" d="M37.423 13.969v3.565h-11.502v3.492h10.976v3.529h-10.976v3.529h11.502v3.565h-15.483v-17.679h15.483z"></path>
<path fill="#fff" style="fill: var(--color1, #fff)" d="M58.751 13.969v17.679h-3.826l-9.959-11.992v11.992h-3.826v-17.679h3.826l9.959 11.968v-11.968h3.826z"></path>
<path fill="#000" style="fill: var(--color2, #000)" opacity="0.2" d="M58.751 13.969v17.679h-3.826l-9.959-11.992v11.992h-3.826v-17.679h3.826l9.959 11.968v-11.968h3.826z"></path>
<path fill="#fff" style="fill: var(--color1, #fff)" d="M66.81 13.969h-4.017v17.667h4.017v-17.667z"></path>
<path fill="#000" style="fill: var(--color2, #000)" opacity="0.2" d="M66.81 13.969h-4.017v17.667h4.017v-17.667z"></path>
<path fill="#fff" style="fill: var(--color1, #fff)" d="M86.144 17.582l-10.952 10.452h10.952v3.613h-16.26v-3.613l10.94-10.452h-10.94v-3.613h16.26v3.613z"></path>
<path fill="#000" style="fill: var(--color2, #000)" opacity="0.2" d="M86.144 17.582l-10.952 10.452h10.952v3.613h-16.26v-3.613l10.94-10.452h-10.94v-3.613h16.26v3.613z"></path>
<path fill="#fff" style="fill: var(--color1, #fff)" d="M137.087 13.969v3.565h-11.502v3.492h10.964v3.529h-10.964v3.529h11.502v3.565h-15.484v-17.679h15.484z"></path>
<path fill="#000" style="fill: var(--color2, #000)" opacity="0.2" d="M137.087 13.969v3.565h-11.502v3.492h10.964v3.529h-10.964v3.529h11.502v3.565h-15.484v-17.679h15.484z"></path>
<path fill="#fff" style="fill: var(--color1, #fff)" d="M142.503 30.411c-1.482-1.043-2.236-2.571-2.236-4.584v-0.267h3.934v0.267c0 0.861 0.43 1.516 1.279 1.964 0.85 0.449 2.092 0.679 3.719 0.679 1.447 0 2.559-0.158 3.311-0.473 0.754-0.315 1.124-0.776 1.124-1.382v-0.182c0-0.485-0.215-0.861-0.633-1.116-0.419-0.255-1.172-0.473-2.26-0.631l-4.436-0.643c-3.826-0.57-5.739-2.17-5.739-4.79v-0.267c0-1.673 0.717-2.971 2.164-3.904s3.467-1.394 6.073-1.394c2.762 0 4.866 0.509 6.325 1.504 1.447 1.006 2.176 2.462 2.176 4.365v0.243h-3.934v-0.243c0-1.576-1.518-2.377-4.567-2.377-1.363 0-2.402 0.146-3.121 0.437-0.717 0.291-1.076 0.715-1.076 1.261v0.218c0 0.412 0.204 0.74 0.598 0.97 0.395 0.23 1.088 0.424 2.057 0.57l4.459 0.643c2.033 0.303 3.539 0.861 4.495 1.661 0.969 0.8 1.447 1.904 1.447 3.322v0.267c0 1.722-0.753 3.068-2.26 4.026-1.506 0.958-3.634 1.443-6.372 1.443-2.738 0-5.045-0.521-6.528-1.564z"></path>
<path fill="#000" style="fill: var(--color2, #000)" opacity="0.2" d="M142.503 30.411c-1.482-1.043-2.236-2.571-2.236-4.584v-0.267h3.934v0.267c0 0.861 0.43 1.516 1.279 1.964 0.85 0.449 2.092 0.679 3.719 0.679 1.447 0 2.559-0.158 3.311-0.473 0.754-0.315 1.124-0.776 1.124-1.382v-0.182c0-0.485-0.215-0.861-0.633-1.116-0.419-0.255-1.172-0.473-2.26-0.631l-4.436-0.643c-3.826-0.57-5.739-2.17-5.739-4.79v-0.267c0-1.673 0.717-2.971 2.164-3.904s3.467-1.394 6.073-1.394c2.762 0 4.866 0.509 6.325 1.504 1.447 1.006 2.176 2.462 2.176 4.365v0.243h-3.934v-0.243c0-1.576-1.518-2.377-4.567-2.377-1.363 0-2.402 0.146-3.121 0.437-0.717 0.291-1.076 0.715-1.076 1.261v0.218c0 0.412 0.204 0.74 0.598 0.97 0.395 0.23 1.088 0.424 2.057 0.57l4.459 0.643c2.033 0.303 3.539 0.861 4.495 1.661 0.969 0.8 1.447 1.904 1.447 3.322v0.267c0 1.722-0.753 3.068-2.26 4.026-1.506 0.958-3.634 1.443-6.372 1.443-2.738 0-5.045-0.521-6.528-1.564z"></path>
<path fill="#fff" style="fill: var(--color1, #fff)" d="M159.577 17.607v-3.638h17.611v3.638h-6.791v14.042h-4.018v-14.042h-6.803z"></path>
<path fill="#000" style="fill: var(--color2, #000)" opacity="0.2" d="M159.577 17.607v-3.638h17.611v3.638h-6.791v14.042h-4.018v-14.042h-6.803z"></path>
<path fill="#fff" style="fill: var(--color1, #fff)" d="M190.627 24.482l-2.846-6.572-2.846 6.572h5.692zM197.717 31.030v0.618h-3.981l-1.59-3.662h-8.716l-1.59 3.662h-3.981v-0.618l7.723-17.049h4.412l7.736 17.049h-0.012z"></path>
<path fill="#000" style="fill: var(--color2, #000)" opacity="0.2" d="M190.627 24.482l-2.846-6.572-2.846 6.572h5.692zM197.717 31.030v0.618h-3.981l-1.59-3.662h-8.716l-1.59 3.662h-3.981v-0.618l7.723-17.049h4.412l7.736 17.049h-0.012z"></path>
<path fill="#fff" style="fill: var(--color1, #fff)" d="M198.386 17.607v-3.638h17.611v3.638h-6.803v14.042h-4.006v-14.042h-6.803z"></path>
<path fill="#000" style="fill: var(--color2, #000)" opacity="0.2" d="M198.386 17.607v-3.638h17.611v3.638h-6.803v14.042h-4.006v-14.042h-6.803z"></path>
<path fill="#fff" style="fill: var(--color1, #fff)" d="M233.93 13.969v3.565h-11.501v3.492h10.964v3.529h-10.964v3.529h11.501v3.565h-15.495v-17.679h15.495z"></path>
<path fill="#000" style="fill: var(--color2, #000)" opacity="0.2" d="M233.93 13.969v3.565h-11.501v3.492h10.964v3.529h-10.964v3.529h11.501v3.565h-15.495v-17.679h15.495z"></path>
<path fill="#8dc8e5" style="fill: var(--color3, #8dc8e5)" d="M104.89 6.172v1.661h-1.734v-1.661c0-0.327 0.359-0.606 0.801-0.606h0.132c0.442 0 0.801 0.267 0.801 0.606zM107.736 20.747l-0.072-1.491-6.695 1.686c-4.053-1.249-6.982-4.911-6.982-9.47 0-5.651 4.519-10.234 10.091-10.234 3.204 0 6.062 1.516 7.903 3.88l-5.272 1.819-0.191-2.28-2.475-1.576-2.475 1.576-0.442 5.99 5.763-1.601 7.293 2.474c-0.024 4.317-2.678 7.821-6.421 9.216zM104.089 0c-6.241 0-11.298 5.129-11.298 11.459 0 9.943 11.298 20.177 11.298 20.177s11.298-10.804 11.298-20.177c0-6.33-5.057-11.459-11.298-11.459z"></path>
<path fill="#8dc8e5" style="fill: var(--color3, #8dc8e5)" d="M107.115 10.61l-6.253 1.649-0.108 2.219 6.468-1.698-0.108-2.171z"></path>
<path fill="#8dc8e5" style="fill: var(--color3, #8dc8e5)" d="M100.502 16.685l-0.108 2.219 7.174-1.795-0.108-2.183-6.958 1.758z"></path>
</symbol>
<symbol id="icon-inst" viewBox="0 0 32 32">
<path fill="#fff" style="fill: var(--color1, #fff)" d="M14.826 7.214c-4.212 0-7.627 3.415-7.627 7.627s3.415 7.627 7.627 7.627c4.212 0 7.627-3.415 7.627-7.627s-3.415-7.627-7.627-7.627zM14.826 19.792c-2.732 0-4.952-2.22-4.952-4.952s2.22-4.952 4.952-4.952c2.732 0 4.952 2.22 4.952 4.952s-2.22 4.952-4.952 4.952z"></path>
<path fill="#fff" style="fill: var(--color1, #fff)" d="M14.826 2.675c3.97 0 4.439 0.014 6.004 0.085 1.451 0.071 2.234 0.313 2.76 0.512 0.697 0.27 1.181 0.598 1.708 1.11 0.526 0.526 0.839 1.010 1.11 1.707 0.199 0.526 0.441 1.309 0.512 2.76 0.071 1.565 0.085 2.035 0.085 6.004s-0.014 4.439-0.085 6.004c-0.071 1.451-0.313 2.234-0.512 2.76-0.27 0.697-0.598 1.181-1.11 1.707-0.512 0.512-1.010 0.84-1.708 1.11-0.526 0.199-1.309 0.441-2.76 0.512-1.565 0.071-2.035 0.085-6.004 0.085s-4.439-0.014-6.004-0.085c-1.451-0.071-2.234-0.313-2.76-0.512-0.697-0.27-1.181-0.598-1.707-1.11-0.512-0.527-0.839-1.010-1.11-1.707-0.199-0.526-0.441-1.309-0.512-2.76-0.071-1.565-0.085-2.035-0.085-6.004s0.014-4.439 0.085-6.004c0.071-1.451 0.313-2.234 0.512-2.76 0.27-0.697 0.598-1.181 1.11-1.707 0.526-0.526 1.010-0.839 1.707-1.11 0.526-0.199 1.309-0.441 2.76-0.512 1.565-0.071 2.035-0.085 6.004-0.085zM14.826 0c-4.027 0-4.539 0.014-6.118 0.085s-2.661 0.327-3.6 0.697c-0.982 0.384-1.807 0.882-2.632 1.707s-1.337 1.65-1.707 2.632c-0.37 0.939-0.612 2.020-0.683 3.6s-0.085 2.092-0.085 6.118c0 4.027 0.014 4.539 0.085 6.118s0.327 2.661 0.683 3.6c0.384 0.982 0.882 1.807 1.707 2.632s1.651 1.338 2.632 1.708c0.939 0.37 2.020 0.612 3.6 0.697 1.579 0.071 2.092 0.085 6.118 0.085s4.539-0.014 6.118-0.085c1.579-0.071 2.661-0.327 3.6-0.697 0.982-0.384 1.807-0.882 2.632-1.708s1.337-1.65 1.707-2.632c0.37-0.939 0.612-2.020 0.697-3.6 0.071-1.579 0.085-2.092 0.085-6.118s-0.014-4.539-0.085-6.118c-0.071-1.579-0.327-2.661-0.697-3.6-0.384-0.982-0.882-1.807-1.707-2.632s-1.651-1.337-2.632-1.707c-0.939-0.37-2.020-0.612-3.6-0.697-1.579-0.071-2.092-0.085-6.118-0.085z"></path>
</symbol>
<symbol id="icon-youtube" viewBox="0 0 47 32">
<path fill="#fff" style="fill: var(--color1, #fff)" d="M42.802 4.987c-0.502-1.965-1.981-3.514-3.861-4.035-3.416-0.953-17.081-0.953-17.081-0.953s-13.679 0-17.081 0.953c-1.88 0.521-3.359 2.069-3.861 4.035-0.919 3.558-0.919 10.987-0.919 10.987s0 7.429 0.919 10.987c0.502 1.965 1.981 3.514 3.861 4.035 3.416 0.953 17.081 0.953 17.081 0.953s13.679 0 17.081-0.953c1.88-0.521 3.359-2.069 3.861-4.035 0.919-3.558 0.919-10.987 0.919-10.987s0-7.429-0.919-10.987z"></path>
<path fill="#222221" style="fill: var(--color2, #222221)" d="M16.815 23.542v-13.452l11.771 6.726-11.771 6.726z"></path>
</symbol>
<symbol id="icon-viber" viewBox="0 0 35 32">
<path fill="#fff" style="fill: var(--color1, #fff)" d="M31.596 23.542c-0.79-0.387-4.591-2.253-5.297-2.506-0.706-0.269-1.228-0.387-1.749 0.387s-2.018 2.506-2.455 2.993c-0.454 0.521-0.908 0.572-1.682 0.185s-3.262-1.177-6.222-3.817c-2.287-2.018-3.868-4.54-4.305-5.314s-0.050-1.177 0.336-1.564c0.353-0.353 0.774-0.908 1.16-1.345 0.101-0.135 0.185-0.252 0.286-0.37 0.185-0.286 0.303-0.555 0.488-0.925 0.269-0.521 0.135-0.959-0.050-1.345s-1.749-4.17-2.388-5.7c-0.639-1.53-1.278-1.278-1.749-1.278s-0.958-0.067-1.48-0.067c-0.521 0-1.362 0.185-2.068 0.958s-2.707 2.64-2.707 6.424c0 0.891 0.168 1.782 0.404 2.623 0.79 2.707 2.472 4.944 2.758 5.331 0.387 0.504 5.347 8.509 13.217 11.603 7.887 3.060 7.887 2.035 9.299 1.9 1.412-0.118 4.591-1.85 5.213-3.649 0.656-1.782 0.656-3.329 0.454-3.649-0.185-0.303-0.706-0.504-1.48-0.891l0.017 0.017z"></path>
</symbol>
<symbol id="icon-arrow-down-select" viewBox="0 0 40 32">
<path fill="#fff" style="fill: var(--color1, #fff)" d="M20 26.532c-0.478 0-0.942-0.093-1.392-0.28s-0.823-0.435-1.119-0.746l-16.502-17.164c-0.658-0.684-0.987-1.555-0.987-2.612s0.329-1.928 0.987-2.612c0.658-0.684 1.495-1.026 2.511-1.026s1.853 0.342 2.511 1.026l13.991 14.552 13.991-14.552c0.658-0.684 1.495-1.026 2.511-1.026s1.854 0.342 2.511 1.026c0.658 0.684 0.987 1.555 0.987 2.612s-0.329 1.928-0.987 2.612l-16.502 17.164c-0.359 0.373-0.747 0.638-1.166 0.795s-0.867 0.234-1.345 0.231z"></path>
<path fill="#000" style="fill: var(--color2, #000)" opacity="0.2" d="M20 26.532c-0.478 0-0.942-0.093-1.392-0.28s-0.823-0.435-1.119-0.746l-16.502-17.164c-0.658-0.684-0.987-1.555-0.987-2.612s0.329-1.928 0.987-2.612c0.658-0.684 1.495-1.026 2.511-1.026s1.853 0.342 2.511 1.026l13.991 14.552 13.991-14.552c0.658-0.684 1.495-1.026 2.511-1.026s1.854 0.342 2.511 1.026c0.658 0.684 0.987 1.555 0.987 2.612s-0.329 1.928-0.987 2.612l-16.502 17.164c-0.359 0.373-0.747 0.638-1.166 0.795s-0.867 0.234-1.345 0.231z"></path>
</symbol>
<symbol id="icon-tick" viewBox="0 0 41 32">
<path fill="none" stroke="#2d4d76" style="stroke: var(--color1, #2d4d76)" stroke-linejoin="miter" stroke-linecap="butt" stroke-miterlimit="4" stroke-width="5.8182" d="M2.909 14.545l11.636 11.636 23.273-23.273"></path>
</symbol>
<symbol id="icon-sort-arrow-bottom" viewBox="0 0 28 32">
<path fill="#929ba0" style="fill: var(--color1, #929ba0)" d="M12.965 29.702c0.694 0.694 1.82 0.694 2.514 0l11.314-11.314c0.694-0.694 0.694-1.82 0-2.514s-1.82-0.694-2.514 0l-10.057 10.057-10.057-10.057c-0.694-0.694-1.82-0.694-2.514 0s-0.694 1.82 0 2.514l11.314 11.314zM12.444 0v28.444h3.556v-28.444h-3.556z"></path>
</symbol>
<symbol id="icon-sort-arrow-top" viewBox="0 0 28 32">
<path fill="#929ba0" style="fill: var(--color1, #929ba0)" d="M15.479 2.298c-0.694-0.694-1.82-0.694-2.514 0l-11.314 11.314c-0.694 0.694-0.694 1.82 0 2.514s1.82 0.694 2.514 0l10.057-10.057 10.057 10.057c0.694 0.694 1.82 0.694 2.514 0s0.694-1.82 0-2.514l-11.314-11.314zM16 32v-28.444h-3.556v28.444h3.556z"></path>
</symbol>
<symbol id="icon-slider-arrow-right" viewBox="0 0 48 32">
<path fill="#2d4d76" style="fill: var(--color1, #2d4d76)" d="M4 14c-1.105 0-2 0.895-2 2s0.895 2 2 2v-4zM45.414 17.414c0.781-0.781 0.781-2.047 0-2.828l-12.728-12.728c-0.781-0.781-2.047-0.781-2.828 0s-0.781 2.047 0 2.828l11.314 11.314-11.314 11.314c-0.781 0.781-0.781 2.047 0 2.828s2.047 0.781 2.828 0l12.728-12.728zM4 18h40v-4h-40v4z"></path>
</symbol>
<symbol id="icon-slider-arrow-left" viewBox="0 0 48 32">
<path fill="#2d4d76" style="fill: var(--color1, #2d4d76)" d="M44 18c1.104 0 2-0.895 2-2s-0.896-2-2-2v4zM2.586 14.586c-0.781 0.781-0.781 2.047 0 2.828l12.728 12.728c0.781 0.781 2.047 0.781 2.828 0s0.781-2.047 0-2.828l-11.314-11.314 11.314-11.314c0.781-0.781 0.781-2.047 0-2.828s-2.047-0.781-2.828 0l-12.728 12.728zM44 14h-40v4h40v-4z"></path>
</symbol>
<symbol id="icon-location" viewBox="0 0 23 32">
<path fill="#929ba0" style="fill: var(--color1, #929ba0)" d="M10.519 0.988c-2.789 0.003-5.462 1.139-7.434 3.158s-3.081 4.756-3.084 7.612c0 9.216 9.562 16.175 9.97 16.467 0.161 0.115 0.352 0.177 0.549 0.177s0.388-0.062 0.549-0.177c0.408-0.291 9.97-7.251 9.97-16.467-0.003-2.855-1.112-5.593-3.084-7.612s-4.646-3.155-7.434-3.158zM10.519 7.841c0.756 0 1.496 0.23 2.125 0.66s1.119 1.042 1.409 1.758c0.29 0.716 0.365 1.503 0.218 2.263s-0.512 1.457-1.047 2.005c-0.535 0.548-1.216 0.921-1.958 1.072s-1.511 0.074-2.21-0.223c-0.699-0.296-1.296-0.798-1.717-1.442s-0.645-1.401-0.645-2.176c0-1.039 0.403-2.035 1.12-2.769s1.69-1.147 2.705-1.147z"></path>
</symbol>
<symbol id="icon-room" viewBox="0 0 43 32">
<path d="M36.651 14.481v-10.481c0-2.205-1.468-4-3.272-4h-27.489c-1.804 0-3.272 1.795-3.272 4v10.481c-1.492 0.372-2.618 1.988-2.618 3.919v12.8c0 0.442 0.293 0.8 0.654 0.8s0.654-0.358 0.654-0.8v-2.4h36.651v2.4c0 0.442 0.293 0.8 0.655 0.8s0.655-0.358 0.655-0.8v-12.8c0-1.932-1.126-3.547-2.618-3.919zM3.927 4c0-1.323 0.881-2.4 1.963-2.4h27.489c1.083 0 1.964 1.077 1.964 2.4v10.4h-1.964v-4.8c0-1.764-1.174-3.2-2.618-3.2h-7.854c-1.444 0-2.618 1.436-2.618 3.2v4.8h-1.309v-4.8c0-1.764-1.174-3.2-2.618-3.2h-7.854c-1.444 0-2.618 1.436-2.618 3.2v4.8h-1.963v-10.4zM32.070 14.4h-10.472v-4.8c0-0.882 0.587-1.6 1.309-1.6h7.854c0.722 0 1.309 0.718 1.309 1.6v4.8zM17.671 14.4h-10.472v-4.8c0-0.882 0.587-1.6 1.309-1.6h7.854c0.722 0 1.309 0.718 1.309 1.6v4.8zM3.272 16h32.724c1.083 0 1.963 1.077 1.963 2.4v5.6h-36.651v-5.6c0-1.323 0.881-2.4 1.963-2.4zM1.309 25.6h36.651v1.6h-36.651v-1.6z"></path>
</symbol>
<symbol id="icon-area" viewBox="0 0 36 32">
<path d="M15.519 32c-4.653 0-9.315 0-13.968 0-0.974 0-1.551-0.599-1.551-1.626 0-7.624 0-15.258 0-22.883 0-1.036 0.532-1.635 1.515-1.683 0.099 0 0.198 0 0.307 0 6.339 0 12.679 0 19.018 0 0.216 0 0.433-0.010 0.649 0 0.162 0.010 0.207-0.048 0.207-0.219 0-1.426 0-2.843 0-4.269 0-0.694 0.352-1.188 0.947-1.302 0.108-0.019 0.216-0.019 0.325-0.019 2.128 0 4.256 0 6.384 0 1.154 0 2.083 0.485 2.759 1.474 0.397 0.589 0.613 1.264 0.613 1.987 0 8.442 0.009 16.884 0 25.326 0 1.445-1.028 3.004-2.795 3.175-0.27 0.029-0.55 0.038-0.821 0.038-4.527 0-9.054 0-13.58 0h-0.009zM31.579 6.189c-0.054 0.029-0.099 0.038-0.135 0.076-0.712 0.589-1.533 0.799-2.426 0.799-3.868 0-7.737 0-11.605 0-5.302 0-10.614 0-15.916 0-0.289 0-0.343 0.048-0.343 0.361 0 0.171 0 0.333 0 0.504 0 7.425 0 14.84 0 22.265 0 0.105 0 0.209 0 0.323 0.009 0.171 0.099 0.266 0.262 0.285 0.081 0.010 0.171 0 0.262 0 5.582 0 11.155 0 16.736 0 3.706 0 7.403 0 11.11 0 0.216 0 0.433-0.019 0.64-0.076 0.893-0.257 1.434-1.084 1.434-2.168 0-6.731 0-13.452 0-20.183 0-0.713 0-1.426 0-2.168l-0.018-0.019zM26.286 5.818c1.010 0 2.020-0.019 3.030 0 0.514 0 0.956-0.143 1.371-0.466 0.748-0.58 1.073-1.616 0.785-2.557-0.271-0.903-1.109-1.569-2.020-1.578-2.146 0-4.283 0-6.429 0-0.162 0-0.225 0.029-0.225 0.219 0 1.388 0 2.786 0 4.173 0 0.162 0.045 0.209 0.198 0.209 1.1 0 2.191 0 3.291 0z"></path>
<path d="M26.403 22.217h-1.479v-1.245h1.479v-4.326h-1.479c0-0.371 0-0.723 0-1.065 0-0.048 0.090-0.124 0.135-0.124 0.785 0 1.569 0 2.363 0 0.045 0 0.135 0.114 0.135 0.171 0 4.116 0 8.233 0 12.359 0 0.019 0 0.029-0.009 0.067h-22.381c0-0.067-0.009-0.143-0.009-0.219 0-5.875 0-11.75 0-17.626 0-0.276 0.135-0.247 0.298-0.247 3.742 0 7.476 0 11.218 0 0.974 0 1.948 0 2.922 0 0.18 0 0.234 0.057 0.234 0.247 0 1.664 0 3.318 0 4.982v0.266c0.469 0 0.911 0 1.362 0 0.313 0 0.469 0.165 0.469 0.494 0 0.171 0 0.352 0.009 0.523 0.009 0.133-0.027 0.2-0.162 0.2-0.902 0-1.803 0-2.705 0-0.18 0-0.153-0.114-0.153-0.228 0-1.664 0-3.318 0-4.982 0-0.086 0-0.181 0-0.285h-4.878c0 0.095 0 0.19 0 0.276 0 0.884 0 1.768 0 2.652 0 0.171-0.036 0.219-0.207 0.209-0.307-0.019-0.613 0-0.947 0 0-0.238 0-0.447 0-0.665 0-0.742 0-1.493 0-2.234 0-0.171-0.036-0.247-0.216-0.247-1.975 0-3.941 0-5.915 0-0.045 0-0.099 0-0.162 0.009v6.141h2.543v1.245h-2.552c0 0.105-0.009 0.171-0.009 0.247 0 2.595 0 5.191 0 7.786 0 0.2 0.054 0.257 0.243 0.257 2.047 0 4.085 0 6.132 0 0.144 0 0.234-0.019 0.234-0.209 0-2.472-0.009-4.944-0.018-7.425 0-0.342 0-0.684-0.009-1.027 0-0.162 0.027-0.247 0.216-0.238 0.243 0.019 0.487 0.019 0.739 0 0.162-0.010 0.198 0.057 0.198 0.209 0 0.856 0 1.702 0 2.557 0 0.2 0.063 0.247 0.234 0.247 0.415-0.009 0.821 0 1.271 0 0 0.399 0 0.78 0 1.16 0 0.029-0.108 0.086-0.162 0.086-0.379 0-0.748 0.009-1.127 0-0.153 0-0.207 0.038-0.207 0.219 0 1.378 0.009 2.757 0 4.135 0 0.228 0.063 0.285 0.271 0.285 3.977 0 7.953 0 11.93 0 0.135 0 0.207-0.029 0.207-0.2 0-1.436 0-2.881 0-4.316 0-0.029 0-0.057-0.018-0.124h-0.036z"></path>
</symbol>
<symbol id="icon-benefit-first" viewBox="0 0 32 32">
<path fill="#2d4d76" style="fill: var(--color1, #2d4d76)" d="M19.435 3.843c0 0.334 0.111 0.779 0.223 1.113l-8.021 6.234c-1.225-1.113-2.785-1.781-4.456-1.781-3.676 0-6.684 3.006-6.684 6.68s3.008 6.68 6.684 6.68c1.782 0 3.342-0.668 4.456-1.781l8.021 6.234c-0.111 0.334-0.223 0.779-0.223 1.113 0 1.893 1.448 3.34 3.342 3.34s3.342-1.447 3.342-3.34c0-1.893-1.448-3.34-3.342-3.34-0.668 0-1.225 0.223-1.782 0.557l-7.909-6.234c0.334-0.668 0.557-1.336 0.668-2.115h11.474c0.446 1.336 1.671 2.226 3.119 2.226 1.894 0 3.342-1.447 3.342-3.34s-1.448-3.34-3.342-3.34c-1.448 0-2.674 0.891-3.119 2.226h-11.474c-0.111-0.779-0.334-1.447-0.668-2.115l7.909-6.234c0.557 0.334 1.114 0.557 1.782 0.557 1.894 0 3.342-1.447 3.342-3.34s-1.448-3.34-3.342-3.34c-1.894 0-3.342 1.447-3.342 3.34zM2.725 16.089c0-2.449 2.005-4.453 4.456-4.453s4.456 2.004 4.456 4.453c0 2.449-2.005 4.453-4.456 4.453s-4.456-2.004-4.456-4.453zM23.891 28.335c0 0.668-0.446 1.113-1.114 1.113s-1.114-0.445-1.114-1.113c0-0.668 0.446-1.113 1.114-1.113s1.114 0.445 1.114 1.113zM29.461 16.089c0 0.668-0.446 1.113-1.114 1.113s-1.114-0.445-1.114-1.113c0-0.668 0.446-1.113 1.114-1.113s1.114 0.445 1.114 1.113zM23.891 3.843c0 0.668-0.446 1.113-1.114 1.113s-1.114-0.445-1.114-1.113c0-0.668 0.446-1.113 1.114-1.113s1.114 0.445 1.114 1.113z"></path>
</symbol>
<symbol id="icon-benefit-second" viewBox="0 0 37 32">
<path fill="#2d4d76" style="fill: var(--color1, #2d4d76); stroke: var(--color1, #2d4d76)" stroke="#2d4d76" stroke-linejoin="miter" stroke-linecap="butt" stroke-miterlimit="4" stroke-width="0.4395" d="M36.344 19.077c-0.253 1.060-1.002 1.674-1.876 2.236-4.996 3.199-9.974 6.425-14.955 9.647-1.263 0.818-2.576 0.923-3.944 0.317-2.399-1.066-4.795-2.14-7.194-3.202-0.171-0.076-0.369-0.119-0.558-0.119-1.487-0.009-2.974-0.035-4.461 0.006-1.060 0.029-1.815-0.341-2.173-1.38v-10.186c0.235-0.678 0.636-1.185 1.377-1.333 0.154-0.032 0.317-0.038 0.476-0.038 1.557 0 3.111-0.006 4.667 0.003 0.241 0 0.404-0.070 0.552-0.253 0.59-0.722 1.214-1.406 2.106-1.767 1.87-0.754 3.596-0.506 5.097 0.844 0.9 0.809 1.743 1.688 2.579 2.57 1.17 1.237 1.139 3.010-0.047 4.239-0.261 0.271-0.534 0.527-0.804 0.798 0.473 0.483 0.912 0.949 1.374 1.391 0.241 0.23 0.514 0.166 0.793 0.023 1.583-0.821 3.169-1.63 4.752-2.445 2.669-1.374 5.356-2.716 8.005-4.134 1.827-0.978 3.825 0 4.191 1.776 0.003 0.017 0.029 0.032 0.047 0.049v0.964l-0.003-0.006zM16.463 20.716c0.256-0.279 0.505-0.562 0.767-0.833 0.761-0.78 0.781-1.752 0.023-2.533-0.79-0.812-1.586-1.621-2.405-2.407-1.475-1.421-3.616-1.394-5.077 0.050-0.433 0.428-0.868 0.85-1.281 1.295-0.116 0.128-0.212 0.332-0.212 0.501-0.012 3.199-0.006 6.398-0.015 9.601 0 0.233 0.073 0.338 0.282 0.428 2.428 1.083 4.862 2.157 7.276 3.272 1.159 0.536 2.21 0.437 3.27-0.25 4.133-2.687 8.281-5.35 12.422-8.023 0.961-0.62 1.929-1.231 2.881-1.863 0.979-0.649 1.069-1.956 0.18-2.617-0.564-0.419-1.15-0.393-1.769-0.073-4.275 2.227-8.554 4.442-12.832 6.66-0.941 0.486-1.641 0.376-2.388-0.37-1.812-1.817-3.625-3.633-5.437-5.45-0.084-0.084-0.166-0.175-0.186-0.195 0.282-0.309 0.532-0.585 0.816-0.9 1.214 1.22 2.422 2.436 3.686 3.709l-0.003-0.003zM7.012 16.206c-0.105-0.006-0.183-0.012-0.261-0.012-1.211 0-2.425-0.003-3.636 0-0.569 0-0.758 0.195-0.758 0.768 0 3.004 0 6.005 0 9.010 0 0.603 0.168 0.766 0.781 0.766 1.179 0 2.356 0 3.535 0 0.11 0 0.221-0.012 0.343-0.020v-10.515l-0.003 0.003z"></path>
<path fill="#2d4d76" style="fill: var(--color1, #2d4d76); stroke: var(--color1, #2d4d76)" stroke="#2d4d76" stroke-linejoin="miter" stroke-linecap="butt" stroke-miterlimit="4" stroke-width="0.4395" d="M9.393 2.155v9.929h-1.176v-11.146c0.119-0.006 0.241-0.017 0.363-0.017 8.734 0 17.465 0.003 26.198-0.003 0.253 0 0.392 0.017 0.389 0.341-0.012 4.291-0.009 8.579-0.009 12.87 0 0.090-0.009 0.18-0.017 0.3h-1.171v-12.273h-24.578z"></path>
<path fill="#2d4d76" style="fill: var(--color1, #2d4d76); stroke: var(--color1, #2d4d76)" stroke="#2d4d76" stroke-linejoin="miter" stroke-linecap="butt" stroke-miterlimit="4" stroke-width="0.4395" d="M11.708 4.452v-1.156h19.916v1.156c0.308 0 0.569 0.017 0.828-0.006 0.285-0.023 0.369 0.079 0.369 0.364-0.012 1.767-0.006 3.534-0.006 5.298 0 1.307 0 2.614 0 3.924 0 0.125 0 0.247 0 0.396h-1.182v-8.751c-0.691-0.116-1.112-0.492-1.202-1.188h-17.511c-0.093 0.678-0.488 1.068-1.179 1.176v5.81h-1.194c-0.006-0.116-0.015-0.227-0.015-0.341 0-2.099 0.006-4.198-0.009-6.296 0-0.329 0.102-0.422 0.407-0.393 0.238 0.020 0.476 0.003 0.778 0.003v0.003z"></path>
<path fill="#2d4d76" style="fill: var(--color1, #2d4d76); stroke: var(--color1, #2d4d76)" stroke="#2d4d76" stroke-linejoin="miter" stroke-linecap="butt" stroke-miterlimit="4" stroke-width="0.4395" d="M16.445 11.566c-0.378-0.041-0.755-0.079-1.133-0.119 0.125-2.873 2.89-6.174 7.029-5.787 3.241 0.303 6.134 3.176 5.739 7.1-0.401 3.985-3.912 5.915-6.34 5.746v-1.112c3.404-0.093 5.457-2.955 5.272-5.738-0.16-2.387-2.3-4.614-4.673-4.841-2.852-0.274-5.469 1.656-5.896 4.751h0.003z"></path>
<path fill="#2d4d76" style="fill: var(--color1, #2d4d76); stroke: var(--color1, #2d4d76)" stroke="#2d4d76" stroke-linejoin="miter" stroke-linecap="butt" stroke-miterlimit="4" stroke-width="0.4395" d="M23.558 8.186c0.32 0.262 0.607 0.498 0.918 0.754-1.76 2.157-3.509 4.297-5.272 6.457-0.314-0.253-0.604-0.492-0.921-0.748 1.757-2.154 3.503-4.294 5.274-6.463z"></path>
<path fill="#2d4d76" style="fill: var(--color1, #2d4d76); stroke: var(--color1, #2d4d76)" stroke="#2d4d76" stroke-linejoin="miter" stroke-linecap="butt" stroke-miterlimit="4" stroke-width="0.4395" d="M22.24 15.61h-1.13v-1.161h1.13v1.161z"></path>
<path fill="#2d4d76" style="fill: var(--color1, #2d4d76); stroke: var(--color1, #2d4d76)" stroke="#2d4d76" stroke-linejoin="miter" stroke-linecap="butt" stroke-miterlimit="4" stroke-width="0.4395" d="M21.075 9.732h-1.138v-1.155h1.138v1.155z"></path>
</symbol>
<symbol id="icon-benefit-third" viewBox="0 0 30 32">
<path fill="#2d4d76" style="fill: var(--color1, #2d4d76)" d="M28.87 0.886c0.139 0.086 0.254 0.206 0.334 0.349s0.122 0.304 0.122 0.468v28.824c0 0.255-0.101 0.499-0.282 0.679s-0.425 0.281-0.68 0.281h-5.769c-0.255 0-0.5-0.101-0.68-0.281s-0.282-0.425-0.282-0.679v-2.882h-1.923v2.882c0 0.255-0.101 0.499-0.282 0.679s-0.425 0.281-0.68 0.281h-17.306c-0.255 0-0.5-0.101-0.68-0.281s-0.282-0.425-0.282-0.679v-10.569c0-0.201 0.064-0.398 0.182-0.561s0.284-0.286 0.476-0.349l10.88-3.624v-6.034c0-0.178 0.050-0.353 0.143-0.505s0.228-0.274 0.387-0.354l15.383-7.687c0.147-0.073 0.31-0.108 0.474-0.101s0.323 0.057 0.463 0.143zM12.019 17.449l-9.614 3.201v8.916h9.614v-12.118zM13.942 29.567h3.846v-2.883c0-0.255 0.101-0.499 0.282-0.679s0.425-0.281 0.68-0.281h3.846c0.255 0 0.5 0.101 0.68 0.281s0.282 0.425 0.282 0.679v2.883h3.846v-26.309l-13.46 6.726v19.583z"></path>
<path fill="#2d4d76" style="fill: var(--color1, #2d4d76)" d="M4.328 21.881h1.923v1.922h-1.923v-1.922zM8.173 21.881h1.923v1.922h-1.923v-1.922zM4.328 25.724h1.923v1.922h-1.923v-1.922zM8.173 25.724h1.923v1.922h-1.923v-1.922zM15.865 18.037h1.923v1.922h-1.923v-1.922zM19.711 18.037h1.923v1.922h-1.923v-1.922zM15.865 21.881h1.923v1.922h-1.923v-1.922zM19.711 21.881h1.923v1.922h-1.923v-1.922zM23.557 18.037h1.923v1.922h-1.923v-1.922zM23.557 21.881h1.923v1.922h-1.923v-1.922zM15.865 14.194h1.923v1.922h-1.923v-1.922zM19.711 14.194h1.923v1.922h-1.923v-1.922zM23.557 14.194h1.923v1.922h-1.923v-1.922zM15.865 10.351h1.923v1.922h-1.923v-1.922zM19.711 10.351h1.923v1.922h-1.923v-1.922zM23.557 10.351h1.923v1.922h-1.923v-1.922zM23.557 6.507h1.923v1.922h-1.923v-1.922z"></path>
</symbol>
</defs>
</svg>
