<svg aria-hidden="true" style="position: absolute; width: 0; height: 0; overflow: hidden;" version="1.1" xmlns="http://www.w3.org/2000/svg" xmlns:xlink="http://www.w3.org/1999/xlink">
<defs>
<symbol id="icon-logo" viewBox="0 0 234 32">
<path fill="#fff" style="fill: var(--color1, #fff)" d="M13.104 26.798c0.945-0.812 1.423-2.061 1.423-3.771v-0.376c0-1.686-0.49-2.947-1.459-3.783s-2.439-1.249-4.412-1.249h-4.675v10.392h4.699c1.997 0 3.479-0.4 4.424-1.213zM8.68 13.981c3.264 0 5.727 0.727 7.401 2.195s2.511 3.638 2.511 6.512v0.291c0 2.874-0.837 5.032-2.499 6.487s-4.137 2.183-7.413 2.183h-8.68v-17.667h8.68z"></path>
<path fill="#000" style="fill: var(--color2, #000)" opacity="0.2" d="M13.104 26.798c0.945-0.812 1.423-2.061 1.423-3.771v-0.376c0-1.686-0.49-2.947-1.459-3.783s-2.439-1.249-4.412-1.249h-4.675v10.392h4.699c1.997 0 3.479-0.4 4.424-1.213zM8.68 13.981c3.264 0 5.727 0.727 7.401 2.195s2.511 3.638 2.511 6.512v0.291c0 2.874-0.837 5.032-2.499 6.487s-4.137 2.183-7.413 2.183h-8.68v-17.667h8.68z"></path>
<path fill="#fff" style="fill: var(--color1, #fff)" d="M37.423 13.969v3.565h-11.502v3.492h10.976v3.529h-10.976v3.529h11.502v3.565h-15.483v-17.679h15.483z"></path>
<path fill="#000" style="fill: var(--color2, #000)" opacity="0.2" d="M37.423 13.969v3.565h-11.502v3.492h10.976v3.529h-10.976v3.529h11.502v3.565h-15.483v-17.679h15.483z"></path>
<path fill="#fff" style="fill: var(--color1, #fff)" d="M58.751 13.969v17.679h-3.826l-9.959-11.992v11.992h-3.826v-17.679h3.826l9.959 11.968v-11.968h3.826z"></path>
<path fill="#000" style="fill: var(--color2, #000)" opacity="0.2" d="M58.751 13.969v17.679h-3.826l-9.959-11.992v11.992h-3.826v-17.679h3.826l9.959 11.968v-11.968h3.826z"></path>
<path fill="#fff" style="fill: var(--color1, #fff)" d="M66.81 13.969h-4.017v17.667h4.017v-17.667z"></path>
<path fill="#000" style="fill: var(--color2, #000)" opacity="0.2" d="M66.81 13.969h-4.017v17.667h4.017v-17.667z"></path>
<path fill="#fff" style="fill: var(--color1, #fff)" d="M86.144 17.582l-10.952 10.452h10.952v3.613h-16.26v-3.613l10.94-10.452h-10.94v-3.613h16.26v3.613z"></path>
<path fill="#000" style="fill: var(--color2, #000)" opacity="0.2" d="M86.144 17.582l-10.952 10.452h10.952v3.613h-16.26v-3.613l10.94-10.452h-10.94v-3.613h16.26v3.613z"></path>
<path fill="#fff" style="fill: var(--color1, #fff)" d="M137.087 13.969v3.565h-11.502v3.492h10.964v3.529h-10.964v3.529h11.502v3.565h-15.484v-17.679h15.484z"></path>
<path fill="#000" style="fill: var(--color2, #000)" opacity="0.2" d="M137.087 13.969v3.565h-11.502v3.492h10.964v3.529h-10.964v3.529h11.502v3.565h-15.484v-17.679h15.484z"></path>
<path fill="#fff" style="fill: var(--color1, #fff)" d="M142.503 30.411c-1.482-1.043-2.236-2.571-2.236-4.584v-0.267h3.934v0.267c0 0.861 0.43 1.516 1.279 1.964 0.85 0.449 2.092 0.679 3.719 0.679 1.447 0 2.559-0.158 3.311-0.473 0.754-0.315 1.124-0.776 1.124-1.382v-0.182c0-0.485-0.215-0.861-0.633-1.116-0.419-0.255-1.172-0.473-2.26-0.631l-4.436-0.643c-3.826-0.57-5.739-2.17-5.739-4.79v-0.267c0-1.673 0.717-2.971 2.164-3.904s3.467-1.394 6.073-1.394c2.762 0 4.866 0.509 6.325 1.504 1.447 1.006 2.176 2.462 2.176 4.365v0.243h-3.934v-0.243c0-1.576-1.518-2.377-4.567-2.377-1.363 0-2.402 0.146-3.121 0.437-0.717 0.291-1.076 0.715-1.076 1.261v0.218c0 0.412 0.204 0.74 0.598 0.97 0.395 0.23 1.088 0.424 2.057 0.57l4.459 0.643c2.033 0.303 3.539 0.861 4.495 1.661 0.969 0.8 1.447 1.904 1.447 3.322v0.267c0 1.722-0.753 3.068-2.26 4.026-1.506 0.958-3.634 1.443-6.372 1.443-2.738 0-5.045-0.521-6.528-1.564z"></path>
<path fill="#000" style="fill: var(--color2, #000)" opacity="0.2" d="M142.503 30.411c-1.482-1.043-2.236-2.571-2.236-4.584v-0.267h3.934v0.267c0 0.861 0.43 1.516 1.279 1.964 0.85 0.449 2.092 0.679 3.719 0.679 1.447 0 2.559-0.158 3.311-0.473 0.754-0.315 1.124-0.776 1.124-1.382v-0.182c0-0.485-0.215-0.861-0.633-1.116-0.419-0.255-1.172-0.473-2.26-0.631l-4.436-0.643c-3.826-0.57-5.739-2.17-5.739-4.79v-0.267c0-1.673 0.717-2.971 2.164-3.904s3.467-1.394 6.073-1.394c2.762 0 4.866 0.509 6.325 1.504 1.447 1.006 2.176 2.462 2.176 4.365v0.243h-3.934v-0.243c0-1.576-1.518-2.377-4.567-2.377-1.363 0-2.402 0.146-3.121 0.437-0.717 0.291-1.076 0.715-1.076 1.261v0.218c0 0.412 0.204 0.74 0.598 0.97 0.395 0.23 1.088 0.424 2.057 0.57l4.459 0.643c2.033 0.303 3.539 0.861 4.495 1.661 0.969 0.8 1.447 1.904 1.447 3.322v0.267c0 1.722-0.753 3.068-2.26 4.026-1.506 0.958-3.634 1.443-6.372 1.443-2.738 0-5.045-0.521-6.528-1.564z"></path>
<path fill="#fff" style="fill: var(--color1, #fff)" d="M159.577 17.607v-3.638h17.611v3.638h-6.791v14.042h-4.018v-14.042h-6.803z"></path>
<path fill="#000" style="fill: var(--color2, #000)" opacity="0.2" d="M159.577 17.607v-3.638h17.611v3.638h-6.791v14.042h-4.018v-14.042h-6.803z"></path>
<path fill="#fff" style="fill: var(--color1, #fff)" d="M190.627 24.482l-2.846-6.572-2.846 6.572h5.692zM197.717 31.030v0.618h-3.981l-1.59-3.662h-8.716l-1.59 3.662h-3.981v-0.618l7.723-17.049h4.412l7.736 17.049h-0.012z"></path>
<path fill="#000" style="fill: var(--color2, #000)" opacity="0.2" d="M190.627 24.482l-2.846-6.572-2.846 6.572h5.692zM197.717 31.030v0.618h-3.981l-1.59-3.662h-8.716l-1.59 3.662h-3.981v-0.618l7.723-17.049h4.412l7.736 17.049h-0.012z"></path>
<path fill="#fff" style="fill: var(--color1, #fff)" d="M198.386 17.607v-3.638h17.611v3.638h-6.803v14.042h-4.006v-14.042h-6.803z"></path>
<path fill="#000" style="fill: var(--color2, #000)" opacity="0.2" d="M198.386 17.607v-3.638h17.611v3.638h-6.803v14.042h-4.006v-14.042h-6.803z"></path>
<path fill="#fff" style="fill: var(--color1, #fff)" d="M233.93 13.969v3.565h-11.501v3.492h10.964v3.529h-10.964v3.529h11.501v3.565h-15.495v-17.679h15.495z"></path>
<path fill="#000" style="fill: var(--color2, #000)" opacity="0.2" d="M233.93 13.969v3.565h-11.501v3.492h10.964v3.529h-10.964v3.529h11.501v3.565h-15.495v-17.679h15.495z"></path>
<path fill="#8dc8e5" style="fill: var(--color3, #8dc8e5)" d="M104.89 6.172v1.661h-1.734v-1.661c0-0.327 0.359-0.606 0.801-0.606h0.132c0.442 0 0.801 0.267 0.801 0.606zM107.736 20.747l-0.072-1.491-6.695 1.686c-4.053-1.249-6.982-4.911-6.982-9.47 0-5.651 4.519-10.234 10.091-10.234 3.204 0 6.062 1.516 7.903 3.88l-5.272 1.819-0.191-2.28-2.475-1.576-2.475 1.576-0.442 5.99 5.763-1.601 7.293 2.474c-0.024 4.317-2.678 7.821-6.421 9.216zM104.089 0c-6.241 0-11.298 5.129-11.298 11.459 0 9.943 11.298 20.177 11.298 20.177s11.298-10.804 11.298-20.177c0-6.33-5.057-11.459-11.298-11.459z"></path>
<path fill="#8dc8e5" style="fill: var(--color3, #8dc8e5)" d="M107.115 10.61l-6.253 1.649-0.108 2.219 6.468-1.698-0.108-2.171z"></path>
<path fill="#8dc8e5" style="fill: var(--color3, #8dc8e5)" d="M100.502 16.685l-0.108 2.219 7.174-1.795-0.108-2.183-6.958 1.758z"></path>
</symbol>
<symbol id="icon-inst" viewBox="0 0 32 32">
<path fill="#fff" style="fill: var(--color1, #fff)" d="M14.826 7.214c-4.212 0-7.627 3.415-7.627 7.627s3.415 7.627 7.627 7.627c4.212 0 7.627-3.415 7.627-7.627s-3.415-7.627-7.627-7.627zM14.826 19.792c-2.732 0-4.952-2.22-4.952-4.952s2.22-4.952 4.952-4.952c2.732 0 4.952 2.22 4.952 4.952s-2.22 4.952-4.952 4.952z"></path>
<path fill="#fff" style="fill: var(--color1, #fff)" d="M14.826 2.675c3.97 0 4.439 0.014 6.004 0.085 1.451 0.071 2.234 0.313 2.76 0.512 0.697 0.27 1.181 0.598 1.708 1.11 0.526 0.526 0.839 1.010 1.11 1.707 0.199 0.526 0.441 1.309 0.512 2.76 0.071 1.565 0.085 2.035 0.085 6.004s-0.014 4.439-0.085 6.004c-0.071 1.451-0.313 2.234-0.512 2.76-0.27 0.697-0.598 1.181-1.11 1.707-0.512 0.512-1.010 0.84-1.708 1.11-0.526 0.199-1.309 0.441-2.76 0.512-1.565 0.071-2.035 0.085-6.004 0.085s-4.439-0.014-6.004-0.085c-1.451-0.071-2.234-0.313-2.76-0.512-0.697-0.27-1.181-0.598-1.707-1.11-0.512-0.527-0.839-1.010-1.11-1.707-0.199-0.526-0.441-1.309-0.512-2.76-0.071-1.565-0.085-2.035-0.085-6.004s0.014-4.439 0.085-6.004c0.071-1.451 0.313-2.234 0.512-2.76 0.27-0.697 0.598-1.181 1.11-1.707 0.526-0.526 1.010-0.839 1.707-1.11 0.526-0.199 1.309-0.441 2.76-0.512 1.565-0.071 2.035-0.085 6.004-0.085zM14.826 0c-4.027 0-4.539 0.014-6.118 0.085s-2.661 0.327-3.6 0.697c-0.982 0.384-1.807 0.882-2.632 1.707s-1.337 1.65-1.707 2.632c-0.37 0.939-0.612 2.020-0.683 3.6s-0.085 2.092-0.085 6.118c0 4.027 0.014 4.539 0.085 6.118s0.327 2.661 0.683 3.6c0.384 0.982 0.882 1.807 1.707 2.632s1.651 1.338 2.632 1.708c0.939 0.37 2.020 0.612 3.6 0.697 1.579 0.071 2.092 0.085 6.118 0.085s4.539-0.014 6.118-0.085c1.579-0.071 2.661-0.327 3.6-0.697 0.982-0.384 1.807-0.882 2.632-1.708s1.337-1.65 1.707-2.632c0.37-0.939 0.612-2.020 0.697-3.6 0.071-1.579 0.085-2.092 0.085-6.118s-0.014-4.539-0.085-6.118c-0.071-1.579-0.327-2.661-0.697-3.6-0.384-0.982-0.882-1.807-1.707-2.632s-1.651-1.337-2.632-1.707c-0.939-0.37-2.020-0.612-3.6-0.697-1.579-0.071-2.092-0.085-6.118-0.085z"></path>
</symbol>
<symbol id="icon-youtube" viewBox="0 0 47 32">
<path fill="#fff" style="fill: var(--color1, #fff)" d="M42.802 4.987c-0.502-1.965-1.981-3.514-3.861-4.035-3.416-0.953-17.081-0.953-17.081-0.953s-13.679 0-17.081 0.953c-1.88 0.521-3.359 2.069-3.861 4.035-0.919 3.558-0.919 10.987-0.919 10.987s0 7.429 0.919 10.987c0.502 1.965 1.981 3.514 3.861 4.035 3.416 0.953 17.081 0.953 17.081 0.953s13.679 0 17.081-0.953c1.88-0.521 3.359-2.069 3.861-4.035 0.919-3.558 0.919-10.987 0.919-10.987s0-7.429-0.919-10.987z"></path>
<path fill="#222221" style="fill: var(--color2, #222221)" d="M16.815 23.542v-13.452l11.771 6.726-11.771 6.726z"></path>
</symbol>
<symbol id="icon-phone" viewBox="0 0 35 32">
<path fill="#fff" style="fill: var(--color1, #fff)" d="M31.596 23.542c-0.79-0.387-4.591-2.253-5.297-2.506-0.706-0.269-1.228-0.387-1.749 0.387s-2.018 2.506-2.455 2.993c-0.454 0.521-0.908 0.572-1.682 0.185s-3.262-1.177-6.222-3.817c-2.287-2.018-3.868-4.54-4.305-5.314s-0.050-1.177 0.336-1.564c0.353-0.353 0.774-0.908 1.16-1.345 0.101-0.135 0.185-0.252 0.286-0.37 0.185-0.286 0.303-0.555 0.488-0.925 0.269-0.521 0.135-0.959-0.050-1.345s-1.749-4.17-2.388-5.7c-0.639-1.53-1.278-1.278-1.749-1.278s-0.958-0.067-1.48-0.067c-0.521 0-1.362 0.185-2.068 0.958s-2.707 2.64-2.707 6.424c0 0.891 0.168 1.782 0.404 2.623 0.79 2.707 2.472 4.944 2.758 5.331 0.387 0.504 5.347 8.509 13.217 11.603 7.887 3.060 7.887 2.035 9.299 1.9 1.412-0.118 4.591-1.85 5.213-3.649 0.656-1.782 0.656-3.329 0.454-3.649-0.185-0.303-0.706-0.504-1.48-0.891l0.017 0.017z"></path>
</symbol>
<symbol id="icon-arrow-down-select" viewBox="0 0 40 32">
<path fill="#fff" style="fill: var(--color1, #fff)" d="M20 26.532c-0.478 0-0.942-0.093-1.392-0.28s-0.823-0.435-1.119-0.746l-16.502-17.164c-0.658-0.684-0.987-1.555-0.987-2.612s0.329-1.928 0.987-2.612c0.658-0.684 1.495-1.026 2.511-1.026s1.853 0.342 2.511 1.026l13.991 14.552 13.991-14.552c0.658-0.684 1.495-1.026 2.511-1.026s1.854 0.342 2.511 1.026c0.658 0.684 0.987 1.555 0.987 2.612s-0.329 1.928-0.987 2.612l-16.502 17.164c-0.359 0.373-0.747 0.638-1.166 0.795s-0.867 0.234-1.345 0.231z"></path>
<path fill="#000" style="fill: var(--color2, #000)" opacity="0.2" d="M20 26.532c-0.478 0-0.942-0.093-1.392-0.28s-0.823-0.435-1.119-0.746l-16.502-17.164c-0.658-0.684-0.987-1.555-0.987-2.612s0.329-1.928 0.987-2.612c0.658-0.684 1.495-1.026 2.511-1.026s1.853 0.342 2.511 1.026l13.991 14.552 13.991-14.552c0.658-0.684 1.495-1.026 2.511-1.026s1.854 0.342 2.511 1.026c0.658 0.684 0.987 1.555 0.987 2.612s-0.329 1.928-0.987 2.612l-16.502 17.164c-0.359 0.373-0.747 0.638-1.166 0.795s-0.867 0.234-1.345 0.231z"></path>
</symbol>
<symbol id="icon-tick" viewBox="0 0 41 32">
<path fill="none" stroke="#2d4d76" style="stroke: var(--color1, #2d4d76)" stroke-linejoin="miter" stroke-linecap="butt" stroke-miterlimit="4" stroke-width="5.8182" d="M2.909 14.545l11.636 11.636 23.273-23.273"></path>
</symbol>
<symbol id="icon-sort-arrow-bottom" viewBox="0 0 28 32">
<path fill="#929ba0" style="fill: var(--color1, #929ba0)" d="M12.965 29.702c0.694 0.694 1.82 0.694 2.514 0l11.314-11.314c0.694-0.694 0.694-1.82 0-2.514s-1.82-0.694-2.514 0l-10.057 10.057-10.057-10.057c-0.694-0.694-1.82-0.694-2.514 0s-0.694 1.82 0 2.514l11.314 11.314zM12.444 0v28.444h3.556v-28.444h-3.556z"></path>
</symbol>
<symbol id="icon-sort-arrow-top" viewBox="0 0 28 32">
<path fill="#929ba0" style="fill: var(--color1, #929ba0)" d="M15.479 2.298c-0.694-0.694-1.82-0.694-2.514 0l-11.314 11.314c-0.694 0.694-0.694 1.82 0 2.514s1.82 0.694 2.514 0l10.057-10.057 10.057 10.057c0.694 0.694 1.82 0.694 2.514 0s0.694-1.82 0-2.514l-11.314-11.314zM16 32v-28.444h-3.556v28.444h3.556z"></path>
</symbol>
<symbol id="icon-slider-arrow-right" viewBox="0 0 48 32">
<path fill="#2d4d76" style="fill: var(--color1, #2d4d76)" d="M4 14c-1.105 0-2 0.895-2 2s0.895 2 2 2v-4zM45.414 17.414c0.781-0.781 0.781-2.047 0-2.828l-12.728-12.728c-0.781-0.781-2.047-0.781-2.828 0s-0.781 2.047 0 2.828l11.314 11.314-11.314 11.314c-0.781 0.781-0.781 2.047 0 2.828s2.047 0.781 2.828 0l12.728-12.728zM4 18h40v-4h-40v4z"></path>
</symbol>
<symbol id="icon-slider-arrow-left" viewBox="0 0 48 32">
<path fill="#2d4d76" style="fill: var(--color1, #2d4d76)" d="M44 18c1.104 0 2-0.895 2-2s-0.896-2-2-2v4zM2.586 14.586c-0.781 0.781-0.781 2.047 0 2.828l12.728 12.728c0.781 0.781 2.047 0.781 2.828 0s0.781-2.047 0-2.828l-11.314-11.314 11.314-11.314c0.781-0.781 0.781-2.047 0-2.828s-2.047-0.781-2.828 0l-12.728 12.728zM44 14h-40v4h40v-4z"></path>
</symbol>
<symbol id="icon-location" viewBox="0 0 23 32">
<path fill="#929ba0" style="fill: var(--color1, #929ba0)" d="M10.519 0.988c-2.789 0.003-5.462 1.139-7.434 3.158s-3.081 4.756-3.084 7.612c0 9.216 9.562 16.175 9.97 16.467 0.161 0.115 0.352 0.177 0.549 0.177s0.388-0.062 0.549-0.177c0.408-0.291 9.97-7.251 9.97-16.467-0.003-2.855-1.112-5.593-3.084-7.612s-4.646-3.155-7.434-3.158zM10.519 7.841c0.756 0 1.496 0.23 2.125 0.66s1.119 1.042 1.409 1.758c0.29 0.716 0.365 1.503 0.218 2.263s-0.512 1.457-1.047 2.005c-0.535 0.548-1.216 0.921-1.958 1.072s-1.511 0.074-2.21-0.223c-0.699-0.296-1.296-0.798-1.717-1.442s-0.645-1.401-0.645-2.176c0-1.039 0.403-2.035 1.12-2.769s1.69-1.147 2.705-1.147z"></path>
</symbol>
<symbol id="icon-room" viewBox="0 0 43 32">
<path d="M36.651 14.481v-10.481c0-2.205-1.468-4-3.272-4h-27.489c-1.804 0-3.272 1.795-3.272 4v10.481c-1.492 0.372-2.618 1.988-2.618 3.919v12.8c0 0.442 0.293 0.8 0.654 0.8s0.654-0.358 0.654-0.8v-2.4h36.651v2.4c0 0.442 0.293 0.8 0.655 0.8s0.655-0.358 0.655-0.8v-12.8c0-1.932-1.126-3.547-2.618-3.919zM3.927 4c0-1.323 0.881-2.4 1.963-2.4h27.489c1.083 0 1.964 1.077 1.964 2.4v10.4h-1.964v-4.8c0-1.764-1.174-3.2-2.618-3.2h-7.854c-1.444 0-2.618 1.436-2.618 3.2v4.8h-1.309v-4.8c0-1.764-1.174-3.2-2.618-3.2h-7.854c-1.444 0-2.618 1.436-2.618 3.2v4.8h-1.963v-10.4zM32.070 14.4h-10.472v-4.8c0-0.882 0.587-1.6 1.309-1.6h7.854c0.722 0 1.309 0.718 1.309 1.6v4.8zM17.671 14.4h-10.472v-4.8c0-0.882 0.587-1.6 1.309-1.6h7.854c0.722 0 1.309 0.718 1.309 1.6v4.8zM3.272 16h32.724c1.083 0 1.963 1.077 1.963 2.4v5.6h-36.651v-5.6c0-1.323 0.881-2.4 1.963-2.4zM1.309 25.6h36.651v1.6h-36.651v-1.6z"></path>
</symbol>
<symbol id="icon-area" viewBox="0 0 36 32">
<path d="M15.519 32c-4.653 0-9.315 0-13.968 0-0.974 0-1.551-0.599-1.551-1.626 0-7.624 0-15.258 0-22.883 0-1.036 0.532-1.635 1.515-1.683 0.099 0 0.198 0 0.307 0 6.339 0 12.679 0 19.018 0 0.216 0 0.433-0.010 0.649 0 0.162 0.010 0.207-0.048 0.207-0.219 0-1.426 0-2.843 0-4.269 0-0.694 0.352-1.188 0.947-1.302 0.108-0.019 0.216-0.019 0.325-0.019 2.128 0 4.256 0 6.384 0 1.154 0 2.083 0.485 2.759 1.474 0.397 0.589 0.613 1.264 0.613 1.987 0 8.442 0.009 16.884 0 25.326 0 1.445-1.028 3.004-2.795 3.175-0.27 0.029-0.55 0.038-0.821 0.038-4.527 0-9.054 0-13.58 0h-0.009zM31.579 6.189c-0.054 0.029-0.099 0.038-0.135 0.076-0.712 0.589-1.533 0.799-2.426 0.799-3.868 0-7.737 0-11.605 0-5.302 0-10.614 0-15.916 0-0.289 0-0.343 0.048-0.343 0.361 0 0.171 0 0.333 0 0.504 0 7.425 0 14.84 0 22.265 0 0.105 0 0.209 0 0.323 0.009 0.171 0.099 0.266 0.262 0.285 0.081 0.010 0.171 0 0.262 0 5.582 0 11.155 0 16.736 0 3.706 0 7.403 0 11.11 0 0.216 0 0.433-0.019 0.64-0.076 0.893-0.257 1.434-1.084 1.434-2.168 0-6.731 0-13.452 0-20.183 0-0.713 0-1.426 0-2.168l-0.018-0.019zM26.286 5.818c1.010 0 2.020-0.019 3.030 0 0.514 0 0.956-0.143 1.371-0.466 0.748-0.58 1.073-1.616 0.785-2.557-0.271-0.903-1.109-1.569-2.020-1.578-2.146 0-4.283 0-6.429 0-0.162 0-0.225 0.029-0.225 0.219 0 1.388 0 2.786 0 4.173 0 0.162 0.045 0.209 0.198 0.209 1.1 0 2.191 0 3.291 0z"></path>
<path d="M26.403 22.217h-1.479v-1.245h1.479v-4.326h-1.479c0-0.371 0-0.723 0-1.065 0-0.048 0.090-0.124 0.135-0.124 0.785 0 1.569 0 2.363 0 0.045 0 0.135 0.114 0.135 0.171 0 4.116 0 8.233 0 12.359 0 0.019 0 0.029-0.009 0.067h-22.381c0-0.067-0.009-0.143-0.009-0.219 0-5.875 0-11.75 0-17.626 0-0.276 0.135-0.247 0.298-0.247 3.742 0 7.476 0 11.218 0 0.974 0 1.948 0 2.922 0 0.18 0 0.234 0.057 0.234 0.247 0 1.664 0 3.318 0 4.982v0.266c0.469 0 0.911 0 1.362 0 0.313 0 0.469 0.165 0.469 0.494 0 0.171 0 0.352 0.009 0.523 0.009 0.133-0.027 0.2-0.162 0.2-0.902 0-1.803 0-2.705 0-0.18 0-0.153-0.114-0.153-0.228 0-1.664 0-3.318 0-4.982 0-0.086 0-0.181 0-0.285h-4.878c0 0.095 0 0.19 0 0.276 0 0.884 0 1.768 0 2.652 0 0.171-0.036 0.219-0.207 0.209-0.307-0.019-0.613 0-0.947 0 0-0.238 0-0.447 0-0.665 0-0.742 0-1.493 0-2.234 0-0.171-0.036-0.247-0.216-0.247-1.975 0-3.941 0-5.915 0-0.045 0-0.099 0-0.162 0.009v6.141h2.543v1.245h-2.552c0 0.105-0.009 0.171-0.009 0.247 0 2.595 0 5.191 0 7.786 0 0.2 0.054 0.257 0.243 0.257 2.047 0 4.085 0 6.132 0 0.144 0 0.234-0.019 0.234-0.209 0-2.472-0.009-4.944-0.018-7.425 0-0.342 0-0.684-0.009-1.027 0-0.162 0.027-0.247 0.216-0.238 0.243 0.019 0.487 0.019 0.739 0 0.162-0.010 0.198 0.057 0.198 0.209 0 0.856 0 1.702 0 2.557 0 0.2 0.063 0.247 0.234 0.247 0.415-0.009 0.821 0 1.271 0 0 0.399 0 0.78 0 1.16 0 0.029-0.108 0.086-0.162 0.086-0.379 0-0.748 0.009-1.127 0-0.153 0-0.207 0.038-0.207 0.219 0 1.378 0.009 2.757 0 4.135 0 0.228 0.063 0.285 0.271 0.285 3.977 0 7.953 0 11.93 0 0.135 0 0.207-0.029 0.207-0.2 0-1.436 0-2.881 0-4.316 0-0.029 0-0.057-0.018-0.124h-0.036z"></path>
</symbol>
<symbol id="icon-benefit-first" viewBox="0 0 32 32">
<path fill="#2d4d76" style="fill: var(--color1, #2d4d76)" d="M19.435 3.843c0 0.334 0.111 0.779 0.223 1.113l-8.021 6.234c-1.225-1.113-2.785-1.781-4.456-1.781-3.676 0-6.684 3.006-6.684 6.68s3.008 6.68 6.684 6.68c1.782 0 3.342-0.668 4.456-1.781l8.021 6.234c-0.111 0.334-0.223 0.779-0.223 1.113 0 1.893 1.448 3.34 3.342 3.34s3.342-1.447 3.342-3.34c0-1.893-1.448-3.34-3.342-3.34-0.668 0-1.225 0.223-1.782 0.557l-7.909-6.234c0.334-0.668 0.557-1.336 0.668-2.115h11.474c0.446 1.336 1.671 2.226 3.119 2.226 1.894 0 3.342-1.447 3.342-3.34s-1.448-3.34-3.342-3.34c-1.448 0-2.674 0.891-3.119 2.226h-11.474c-0.111-0.779-0.334-1.447-0.668-2.115l7.909-6.234c0.557 0.334 1.114 0.557 1.782 0.557 1.894 0 3.342-1.447 3.342-3.34s-1.448-3.34-3.342-3.34c-1.894 0-3.342 1.447-3.342 3.34zM2.725 16.089c0-2.449 2.005-4.453 4.456-4.453s4.456 2.004 4.456 4.453c0 2.449-2.005 4.453-4.456 4.453s-4.456-2.004-4.456-4.453zM23.891 28.335c0 0.668-0.446 1.113-1.114 1.113s-1.114-0.445-1.114-1.113c0-0.668 0.446-1.113 1.114-1.113s1.114 0.445 1.114 1.113zM29.461 16.089c0 0.668-0.446 1.113-1.114 1.113s-1.114-0.445-1.114-1.113c0-0.668 0.446-1.113 1.114-1.113s1.114 0.445 1.114 1.113zM23.891 3.843c0 0.668-0.446 1.113-1.114 1.113s-1.114-0.445-1.114-1.113c0-0.668 0.446-1.113 1.114-1.113s1.114 0.445 1.114 1.113z"></path>
</symbol>
<symbol id="icon-benefit-second" viewBox="0 0 37 32">
<path fill="#2d4d76" style="fill: var(--color1, #2d4d76); stroke: var(--color1, #2d4d76)" stroke="#2d4d76" stroke-linejoin="miter" stroke-linecap="butt" stroke-miterlimit="4" stroke-width="0.4395" d="M36.344 19.077c-0.253 1.060-1.002 1.674-1.876 2.236-4.996 3.199-9.974 6.425-14.955 9.647-1.263 0.818-2.576 0.923-3.944 0.317-2.399-1.066-4.795-2.14-7.194-3.202-0.171-0.076-0.369-0.119-0.558-0.119-1.487-0.009-2.974-0.035-4.461 0.006-1.060 0.029-1.815-0.341-2.173-1.38v-10.186c0.235-0.678 0.636-1.185 1.377-1.333 0.154-0.032 0.317-0.038 0.476-0.038 1.557 0 3.111-0.006 4.667 0.003 0.241 0 0.404-0.070 0.552-0.253 0.59-0.722 1.214-1.406 2.106-1.767 1.87-0.754 3.596-0.506 5.097 0.844 0.9 0.809 1.743 1.688 2.579 2.57 1.17 1.237 1.139 3.010-0.047 4.239-0.261 0.271-0.534 0.527-0.804 0.798 0.473 0.483 0.912 0.949 1.374 1.391 0.241 0.23 0.514 0.166 0.793 0.023 1.583-0.821 3.169-1.63 4.752-2.445 2.669-1.374 5.356-2.716 8.005-4.134 1.827-0.978 3.825 0 4.191 1.776 0.003 0.017 0.029 0.032 0.047 0.049v0.964l-0.003-0.006zM16.463 20.716c0.256-0.279 0.505-0.562 0.767-0.833 0.761-0.78 0.781-1.752 0.023-2.533-0.79-0.812-1.586-1.621-2.405-2.407-1.475-1.421-3.616-1.394-5.077 0.050-0.433 0.428-0.868 0.85-1.281 1.295-0.116 0.128-0.212 0.332-0.212 0.501-0.012 3.199-0.006 6.398-0.015 9.601 0 0.233 0.073 0.338 0.282 0.428 2.428 1.083 4.862 2.157 7.276 3.272 1.159 0.536 2.21 0.437 3.27-0.25 4.133-2.687 8.281-5.35 12.422-8.023 0.961-0.62 1.929-1.231 2.881-1.863 0.979-0.649 1.069-1.956 0.18-2.617-0.564-0.419-1.15-0.393-1.769-0.073-4.275 2.227-8.554 4.442-12.832 6.66-0.941 0.486-1.641 0.376-2.388-0.37-1.812-1.817-3.625-3.633-5.437-5.45-0.084-0.084-0.166-0.175-0.186-0.195 0.282-0.309 0.532-0.585 0.816-0.9 1.214 1.22 2.422 2.436 3.686 3.709l-0.003-0.003zM7.012 16.206c-0.105-0.006-0.183-0.012-0.261-0.012-1.211 0-2.425-0.003-3.636 0-0.569 0-0.758 0.195-0.758 0.768 0 3.004 0 6.005 0 9.010 0 0.603 0.168 0.766 0.781 0.766 1.179 0 2.356 0 3.535 0 0.11 0 0.221-0.012 0.343-0.020v-10.515l-0.003 0.003z"></path>
<path fill="#2d4d76" style="fill: var(--color1, #2d4d76); stroke: var(--color1, #2d4d76)" stroke="#2d4d76" stroke-linejoin="miter" stroke-linecap="butt" stroke-miterlimit="4" stroke-width="0.4395" d="M9.393 2.155v9.929h-1.176v-11.146c0.119-0.006 0.241-0.017 0.363-0.017 8.734 0 17.465 0.003 26.198-0.003 0.253 0 0.392 0.017 0.389 0.341-0.012 4.291-0.009 8.579-0.009 12.87 0 0.090-0.009 0.18-0.017 0.3h-1.171v-12.273h-24.578z"></path>
<path fill="#2d4d76" style="fill: var(--color1, #2d4d76); stroke: var(--color1, #2d4d76)" stroke="#2d4d76" stroke-linejoin="miter" stroke-linecap="butt" stroke-miterlimit="4" stroke-width="0.4395" d="M11.708 4.452v-1.156h19.916v1.156c0.308 0 0.569 0.017 0.828-0.006 0.285-0.023 0.369 0.079 0.369 0.364-0.012 1.767-0.006 3.534-0.006 5.298 0 1.307 0 2.614 0 3.924 0 0.125 0 0.247 0 0.396h-1.182v-8.751c-0.691-0.116-1.112-0.492-1.202-1.188h-17.511c-0.093 0.678-0.488 1.068-1.179 1.176v5.81h-1.194c-0.006-0.116-0.015-0.227-0.015-0.341 0-2.099 0.006-4.198-0.009-6.296 0-0.329 0.102-0.422 0.407-0.393 0.238 0.020 0.476 0.003 0.778 0.003v0.003z"></path>
<path fill="#2d4d76" style="fill: var(--color1, #2d4d76); stroke: var(--color1, #2d4d76)" stroke="#2d4d76" stroke-linejoin="miter" stroke-linecap="butt" stroke-miterlimit="4" stroke-width="0.4395" d="M16.445 11.566c-0.378-0.041-0.755-0.079-1.133-0.119 0.125-2.873 2.89-6.174 7.029-5.787 3.241 0.303 6.134 3.176 5.739 7.1-0.401 3.985-3.912 5.915-6.34 5.746v-1.112c3.404-0.093 5.457-2.955 5.272-5.738-0.16-2.387-2.3-4.614-4.673-4.841-2.852-0.274-5.469 1.656-5.896 4.751h0.003z"></path>
<path fill="#2d4d76" style="fill: var(--color1, #2d4d76); stroke: var(--color1, #2d4d76)" stroke="#2d4d76" stroke-linejoin="miter" stroke-linecap="butt" stroke-miterlimit="4" stroke-width="0.4395" d="M23.558 8.186c0.32 0.262 0.607 0.498 0.918 0.754-1.76 2.157-3.509 4.297-5.272 6.457-0.314-0.253-0.604-0.492-0.921-0.748 1.757-2.154 3.503-4.294 5.274-6.463z"></path>
<path fill="#2d4d76" style="fill: var(--color1, #2d4d76); stroke: var(--color1, #2d4d76)" stroke="#2d4d76" stroke-linejoin="miter" stroke-linecap="butt" stroke-miterlimit="4" stroke-width="0.4395" d="M22.24 15.61h-1.13v-1.161h1.13v1.161z"></path>
<path fill="#2d4d76" style="fill: var(--color1, #2d4d76); stroke: var(--color1, #2d4d76)" stroke="#2d4d76" stroke-linejoin="miter" stroke-linecap="butt" stroke-miterlimit="4" stroke-width="0.4395" d="M21.075 9.732h-1.138v-1.155h1.138v1.155z"></path>
</symbol>
<symbol id="icon-benefit-third" viewBox="0 0 30 32">
<path fill="#2d4d76" style="fill: var(--color1, #2d4d76)" d="M28.87 0.886c0.139 0.086 0.254 0.206 0.334 0.349s0.122 0.304 0.122 0.468v28.824c0 0.255-0.101 0.499-0.282 0.679s-0.425 0.281-0.68 0.281h-5.769c-0.255 0-0.5-0.101-0.68-0.281s-0.282-0.425-0.282-0.679v-2.882h-1.923v2.882c0 0.255-0.101 0.499-0.282 0.679s-0.425 0.281-0.68 0.281h-17.306c-0.255 0-0.5-0.101-0.68-0.281s-0.282-0.425-0.282-0.679v-10.569c0-0.201 0.064-0.398 0.182-0.561s0.284-0.286 0.476-0.349l10.88-3.624v-6.034c0-0.178 0.050-0.353 0.143-0.505s0.228-0.274 0.387-0.354l15.383-7.687c0.147-0.073 0.31-0.108 0.474-0.101s0.323 0.057 0.463 0.143zM12.019 17.449l-9.614 3.201v8.916h9.614v-12.118zM13.942 29.567h3.846v-2.883c0-0.255 0.101-0.499 0.282-0.679s0.425-0.281 0.68-0.281h3.846c0.255 0 0.5 0.101 0.68 0.281s0.282 0.425 0.282 0.679v2.883h3.846v-26.309l-13.46 6.726v19.583z"></path>
<path fill="#2d4d76" style="fill: var(--color1, #2d4d76)" d="M4.328 21.881h1.923v1.922h-1.923v-1.922zM8.173 21.881h1.923v1.922h-1.923v-1.922zM4.328 25.724h1.923v1.922h-1.923v-1.922zM8.173 25.724h1.923v1.922h-1.923v-1.922zM15.865 18.037h1.923v1.922h-1.923v-1.922zM19.711 18.037h1.923v1.922h-1.923v-1.922zM15.865 21.881h1.923v1.922h-1.923v-1.922zM19.711 21.881h1.923v1.922h-1.923v-1.922zM23.557 18.037h1.923v1.922h-1.923v-1.922zM23.557 21.881h1.923v1.922h-1.923v-1.922zM15.865 14.194h1.923v1.922h-1.923v-1.922zM19.711 14.194h1.923v1.922h-1.923v-1.922zM23.557 14.194h1.923v1.922h-1.923v-1.922zM15.865 10.351h1.923v1.922h-1.923v-1.922zM19.711 10.351h1.923v1.922h-1.923v-1.922zM23.557 10.351h1.923v1.922h-1.923v-1.922zM23.557 6.507h1.923v1.922h-1.923v-1.922z"></path>
</symbol>
<symbol id="icon-quiz-arrow-right" viewBox="0 0 21 32">
<path fill="#fff" style="fill: var(--color1, #fff)" d="M17.383 17.383c0.764-0.764 0.764-2.002 0-2.766l-12.445-12.445c-0.764-0.764-2.002-0.764-2.766 0s-0.764 2.002 0 2.766l11.062 11.062-11.062 11.062c-0.764 0.764-0.764 2.002 0 2.766s2.002 0.764 2.766 0l12.445-12.445zM12.444 17.956h3.556v-3.911h-3.556v3.911z"></path>
</symbol>
<symbol id="icon-after-sales-service" viewBox="0 0 33 32">
<path d="M26.628 19.014c-0.169-0.098-0.371-0.127-0.561-0.079s-0.354 0.168-0.454 0.334l-4.447 7.271c-0.076 0.164-0.086 0.35-0.031 0.521s0.175 0.316 0.333 0.407c0.159 0.090 0.346 0.12 0.525 0.083s0.339-0.138 0.447-0.284l4.447-7.271c0.096-0.165 0.122-0.359 0.074-0.543s-0.168-0.341-0.333-0.439z"></path>
<path d="M24.027 21.093c0-0.431-0.13-0.853-0.375-1.212s-0.592-0.638-0.998-0.803-0.853-0.208-1.285-0.124c-0.431 0.084-0.827 0.292-1.138 0.597s-0.523 0.694-0.608 1.117c-0.086 0.423-0.042 0.862 0.127 1.26s0.453 0.739 0.819 0.979c0.366 0.24 0.796 0.368 1.235 0.368 0.59 0 1.155-0.23 1.572-0.639s0.651-0.964 0.651-1.543zM21.062 21.093c0-0.144 0.043-0.284 0.125-0.404s0.197-0.213 0.333-0.268c0.135-0.055 0.284-0.069 0.428-0.041s0.276 0.097 0.379 0.199c0.104 0.102 0.174 0.231 0.203 0.372s0.014 0.287-0.042 0.42c-0.056 0.133-0.151 0.246-0.273 0.326s-0.265 0.123-0.412 0.123c-0.197 0-0.385-0.077-0.524-0.213s-0.217-0.321-0.217-0.514zM26.25 23.275c-0.44 0-0.87 0.128-1.235 0.368s-0.651 0.58-0.819 0.979c-0.168 0.399-0.212 0.837-0.127 1.26s0.298 0.812 0.608 1.117c0.311 0.305 0.707 0.513 1.138 0.597s0.878 0.041 1.285-0.124 0.753-0.445 0.998-0.803c0.244-0.359 0.375-0.78 0.375-1.212 0-0.579-0.234-1.133-0.651-1.543s-0.982-0.639-1.572-0.639zM26.25 26.183c-0.147 0-0.29-0.043-0.412-0.123s-0.217-0.193-0.273-0.326c-0.056-0.133-0.071-0.279-0.042-0.42s0.099-0.271 0.203-0.372c0.104-0.102 0.236-0.171 0.38-0.199s0.293-0.014 0.428 0.041 0.251 0.148 0.333 0.268c0.081 0.12 0.125 0.26 0.125 0.404 0 0.193-0.078 0.378-0.217 0.514s-0.328 0.213-0.524 0.213z"></path>
<path d="M17.067 0.151c-0.13-0.098-0.289-0.151-0.452-0.151s-0.322 0.053-0.452 0.151l-15.564 11.634c-0.091 0.069-0.164 0.157-0.214 0.258s-0.076 0.212-0.075 0.324v5.090c-0.001 0.136 0.037 0.27 0.11 0.386s0.177 0.21 0.302 0.27c0.124 0.061 0.264 0.086 0.402 0.073s0.27-0.064 0.38-0.148l1.030-0.778v14.012c0 0.193 0.078 0.378 0.217 0.514s0.328 0.213 0.524 0.213h20.752c1.708-0.003 3.378-0.489 4.812-1.399s2.571-2.206 3.274-3.733c0.703-1.527 0.944-3.22 0.693-4.877s-0.983-3.209-2.109-4.469v-0.262l1.030 0.778c0.11 0.083 0.242 0.134 0.38 0.148s0.277-0.012 0.402-0.073c0.124-0.061 0.229-0.154 0.302-0.27s0.111-0.25 0.11-0.386v-5.090c0.001-0.112-0.025-0.223-0.075-0.324s-0.123-0.189-0.214-0.258l-15.564-11.634zM13.651 30.546v-10.18h2.001c-0.661 1.833-0.678 3.831-0.050 5.675s1.867 3.43 3.518 4.505h-5.47zM24.027 30.546c-1.966 0-3.851-0.766-5.241-2.13s-2.171-3.213-2.171-5.142c0.408-9.649 14.415-9.642 14.823 0 0 1.929-0.781 3.778-2.171 5.142s-3.275 2.13-5.241 2.13zM29.215 16.199c-4.084-3.061-10.472-1.651-12.881 2.712h-3.424c-0.197 0-0.385 0.077-0.524 0.213s-0.217 0.321-0.217 0.514v10.907h-8.152v-14.39l12.599-9.417c0 0.044 12.673 9.38 12.599 9.46zM31.438 16.003l-14.371-10.762c-0.133-0.090-0.291-0.139-0.452-0.139s-0.319 0.048-0.452 0.139l-14.371 10.762v-3.272l14.823-11.082 14.823 11.082v3.272z"></path>
</symbol>
<symbol id="icon-residence-permit" viewBox="0 0 31 32">
<path stroke-linejoin="round" stroke-linecap="butt" stroke-miterlimit="10" stroke-width="1.5738" d="M11.195 8.057c-2.537-0.318-5.315-1.33-5.315-1.33l-3.562 2.544c0 0 2.188 7.225-1.018 11.042v2.977c0 0 2.023 1.425 1.756 4.351h2.671c2.748 0 2.035 3.969 4.885 3.358 0 0 1.628-2.086 3.969-2.086h4.274c0 0 0.763-2.341 3.307-2.646 0 0-0.153-2.849 2.392-3.714 0-3.441 0.7-6.603 4.043-9.193 0.989-0.766 1.576-1.939 1.576-3.19v-2.023h-6.245"></path>
<path stroke-linejoin="round" stroke-linecap="butt" stroke-miterlimit="10" stroke-width="1.3525" d="M3.028 13.646h4.633v15.113"></path>
<path stroke-linejoin="round" stroke-linecap="round" stroke-miterlimit="10" stroke-width="1.3525" d="M30.174 8.258v-2.832"></path>
<path stroke-linejoin="round" stroke-linecap="round" stroke-miterlimit="10" stroke-width="1.5738" d="M17.567 0.939c-3.539 0-6.408 2.869-6.408 6.408 0 5.363 6.408 10.778 6.408 10.778s6.408-5.415 6.408-10.778c0-3.539-2.869-6.408-6.408-6.408z"></path>
<path stroke-linejoin="round" stroke-linecap="round" stroke-miterlimit="10" stroke-width="1.5738" d="M19.983 8.324c0.553-1.334-0.081-2.864-1.415-3.417s-2.864 0.081-3.417 1.415c-0.553 1.334 0.081 2.864 1.415 3.417s2.864-0.081 3.417-1.415z"></path>
</symbol>
<symbol id="icon-purchase" viewBox="0 0 34 32">
<path d="M18.401 12.838c0.255 0.927 0.725 1.782 1.373 2.496-0.012 0.063-0.020 0.126-0.024 0.19v4.273c0 1.3 1.061 2.354 2.37 2.354v7.847c-0.001 0.146 0.040 0.29 0.117 0.415s0.188 0.226 0.32 0.291l1.58 0.785c0.11 0.054 0.231 0.083 0.353 0.083s0.244-0.028 0.353-0.083l1.58-0.785c0.132-0.065 0.243-0.166 0.32-0.291s0.118-0.269 0.117-0.415v-7.847c1.309 0 2.37-1.054 2.37-2.354v-4.273c-0.004-0.069-0.013-0.137-0.026-0.204 0.528-0.577 0.939-1.249 1.211-1.98 0.57 0.095 1.156 0.018 1.681-0.221s0.966-0.63 1.266-1.121c0.751-1.234 0.545-2.82-0.496-3.825l-6.429-6.385c-0.512-0.511-1.122-0.917-1.793-1.193s-1.391-0.417-2.117-0.415h-8.307c-0.107-0-0.213 0.021-0.311 0.064l-5.377 2.291h-0.632v-1.569c0-0.208-0.083-0.408-0.231-0.555s-0.349-0.23-0.559-0.23h-6.32c-0.21 0-0.41 0.083-0.559 0.23s-0.231 0.347-0.231 0.555v12.555c0 0.208 0.083 0.408 0.231 0.555s0.349 0.23 0.559 0.23h6.32c0.21 0 0.41-0.083 0.559-0.23s0.231-0.347 0.231-0.555v-1.569h0.115c0.566 1.883 3.106 3.139 5.415 3.139 0.946 0.019 1.883-0.173 2.744-0.563s1.622-0.967 2.227-1.689zM6.32 12.735h-4.74v-10.986h4.74v10.986zM25.28 29.514l-0.79 0.392-0.79-0.392v-7.362h1.58v7.362zM27.65 19.797c0 0.208-0.083 0.408-0.231 0.555s-0.349 0.23-0.559 0.23h-4.74c-0.209 0-0.41-0.083-0.559-0.23s-0.231-0.347-0.231-0.555v-3.203c0.531 0.307 1.105 0.535 1.704 0.675 0.133 0.321 0.368 0.59 0.67 0.764s0.653 0.246 1 0.202c0.347-0.043 0.669-0.199 0.918-0.443s0.41-0.562 0.458-0.906c0.048-0.344-0.019-0.694-0.191-0.996s-0.44-0.539-0.761-0.675c-0.322-0.136-0.679-0.163-1.018-0.077s-0.639 0.281-0.855 0.553c-0.446-0.116-0.872-0.296-1.264-0.536 0.762-0.459 1.614-0.749 2.499-0.851 1.134 0.158 2.216 0.576 3.16 1.22v4.273zM28.238 14.048c-1.129-0.722-2.413-1.171-3.748-1.313-1.333 0.141-2.615 0.59-3.742 1.31-0.482-0.609-0.801-1.33-0.927-2.094h3.88c0.568 0.006 1.126-0.145 1.613-0.434s0.884-0.707 1.147-1.207l2.212 2.197c0.088 0.082 0.182 0.158 0.28 0.228-0.163 0.474-0.404 0.918-0.714 1.313zM26.822 8.45c-0.074-0.642-0.347-1.246-0.783-1.727 0.874 0.302 1.64 0.851 2.204 1.58s0.9 1.606 0.968 2.523l-2.39-2.376zM17.38 11.166c0 1.188-1.957 2.354-3.95 2.354s-3.95-1.166-3.95-2.354c0-0.208-0.083-0.408-0.231-0.555s-0.349-0.23-0.559-0.23h-0.79v-6.278h0.79c0.107 0 0.213-0.021 0.311-0.064l5.376-2.291h8.145c0.52-0.002 1.034 0.099 1.514 0.296s0.916 0.487 1.282 0.853l6.428 6.385c0.252 0.234 0.418 0.546 0.469 0.885s-0.015 0.686-0.187 0.983c-0.13 0.204-0.31 0.372-0.523 0.487s-0.453 0.174-0.696 0.171h-0.037c0.024-0.213 0.036-0.428 0.038-0.643-0.004-3.465-2.831-6.274-6.32-6.278-1.062 0.002-2.106 0.272-3.033 0.785h-6.447v1.569h8.69c0.872 0 1.58 0.703 1.58 1.569s-0.707 1.569-1.58 1.569h-5.53c-0.21 0-0.41 0.083-0.559 0.23s-0.231 0.347-0.231 0.555z"></path>
</symbol>
<symbol id="icon-selection" viewBox="0 0 34 32">
<path d="M30.675 28.201c0.638-0.808 1.108-1.732 1.382-2.718s0.347-2.016 0.215-3.031c-0.132-1.014-0.467-1.993-0.985-2.88s-1.209-1.666-2.034-2.29v-3.67h3.083c0.185-0.002 0.366-0.053 0.524-0.148s0.288-0.229 0.375-0.389c0.087-0.16 0.129-0.34 0.121-0.522s-0.065-0.357-0.166-0.51l-5.138-7.562c-0.094-0.138-0.221-0.251-0.37-0.33s-0.316-0.119-0.485-0.119h-1.541v-3.025c0-0.267-0.108-0.524-0.301-0.713s-0.454-0.295-0.727-0.295h-4.111c-0.273 0-0.534 0.106-0.727 0.295s-0.301 0.446-0.301 0.713v3.025h-13.358c-0.177 0-0.352 0.045-0.506 0.131s-0.283 0.209-0.375 0.359l-4.624 7.562c-0.091 0.153-0.14 0.328-0.141 0.505s0.045 0.352 0.134 0.507 0.218 0.283 0.374 0.374c0.156 0.090 0.333 0.139 0.514 0.141h3.083v15.628c0 0.267 0.108 0.524 0.301 0.713s0.454 0.295 0.727 0.295h14.853c1.358 0.755 2.913 1.098 4.47 0.988s3.045-0.671 4.279-1.609l2.131 2.091c0.194 0.184 0.453 0.285 0.723 0.283s0.527-0.108 0.718-0.295c0.191-0.187 0.299-0.44 0.301-0.704s-0.101-0.519-0.288-0.709l-2.131-2.091zM3.323 11.595l3.391-5.545h12.777v1.512c0 0.267 0.108 0.524 0.301 0.713s0.454 0.295 0.727 0.295 0.534-0.106 0.727-0.295c0.193-0.189 0.301-0.446 0.301-0.713v-5.545h2.055v5.545c0 0.267 0.108 0.524 0.301 0.713s0.454 0.295 0.727 0.295 0.534-0.106 0.727-0.295c0.193-0.189 0.301-0.446 0.301-0.713v-1.512h0.992l3.767 5.545h-27.094zM6.647 28.231v-14.62h20.553v2.534c-1.623-0.609-3.404-0.68-5.072-0.202s-3.13 1.479-4.162 2.85-1.579 3.036-1.556 4.74c0.023 1.704 0.615 3.355 1.685 4.698h-11.448zM24.374 29.24c-1.169 0-2.311-0.34-3.283-0.977s-1.729-1.542-2.177-2.602-0.564-2.225-0.336-3.35c0.228-1.125 0.791-2.158 1.617-2.969s1.879-1.363 3.025-1.587 2.334-0.109 3.414 0.33c1.080 0.439 2.003 1.182 2.652 2.135s0.996 2.074 0.996 3.221c-0.002 1.537-0.625 3.011-1.733 4.098s-2.609 1.698-4.176 1.7z"></path>
<path d="M9.729 24.198c-0.203 0-0.402 0.059-0.571 0.17s-0.301 0.268-0.378 0.453-0.098 0.387-0.058 0.583c0.040 0.196 0.137 0.375 0.281 0.516s0.327 0.237 0.526 0.276c0.199 0.039 0.406 0.019 0.594-0.057s0.348-0.206 0.461-0.371c0.113-0.166 0.173-0.361 0.173-0.56-0.001-0.267-0.109-0.523-0.302-0.712s-0.453-0.295-0.726-0.296z"></path>
</symbol>
<symbol id="icon-experience" viewBox="0 0 31 32">
<path fill="#2d4d76" style="fill: var(--color1, #2d4d76)" d="M22.69 32c-0.389 0.001-0.771-0.102-1.106-0.299s-0.612-0.479-0.801-0.819l-3.711-6.423c-0.148-0.257-0.188-0.562-0.111-0.849s0.264-0.531 0.521-0.679c0.257-0.148 0.562-0.188 0.849-0.112s0.531 0.264 0.679 0.521l3.711 6.423 0.924-2.265c0.192-0.436 0.518-0.798 0.931-1.034s0.891-0.333 1.364-0.277l2.444 0.298-4.471-7.705c-0.073-0.127-0.121-0.268-0.14-0.413s-0.009-0.294 0.029-0.435c0.038-0.142 0.104-0.275 0.193-0.391s0.201-0.214 0.328-0.288c0.127-0.073 0.268-0.121 0.413-0.14s0.294-0.009 0.435 0.029c0.142 0.038 0.275 0.104 0.391 0.193s0.214 0.201 0.288 0.328l4.471 7.72c0.203 0.358 0.303 0.766 0.289 1.177s-0.141 0.811-0.368 1.155-0.544 0.618-0.916 0.793c-0.373 0.175-0.786 0.244-1.196 0.198l-2.444-0.313-0.939 2.25c-0.161 0.383-0.427 0.714-0.767 0.954s-0.74 0.379-1.156 0.403h-0.134zM8.681 32h-0.119c-0.415-0.023-0.816-0.163-1.156-0.403s-0.606-0.57-0.767-0.954l-0.969-2.265-2.414 0.313c-0.408 0.054-0.823-0.009-1.197-0.18s-0.693-0.445-0.919-0.789c-0.215-0.35-0.329-0.752-0.329-1.162s0.114-0.813 0.329-1.162l4.471-7.735c0.148-0.257 0.392-0.444 0.679-0.521s0.592-0.037 0.849 0.111 0.444 0.392 0.521 0.679c0.077 0.287 0.037 0.592-0.111 0.849l-4.471 7.72 2.429-0.313c0.473-0.061 0.953 0.034 1.368 0.271s0.74 0.602 0.927 1.041l0.969 2.265 3.636-6.423c0.148-0.257 0.392-0.444 0.679-0.521s0.592-0.037 0.849 0.112c0.257 0.148 0.444 0.392 0.521 0.679s0.037 0.592-0.111 0.849l-3.756 6.423c-0.189 0.34-0.466 0.623-0.801 0.819s-0.717 0.3-1.106 0.299z"></path>
<path fill="#2d4d76" style="fill: var(--color1, #2d4d76)" d="M15.686 26.277c-0.993 0.001-1.946-0.39-2.653-1.088l-1.311-1.312c-0.138-0.141-0.303-0.253-0.484-0.33s-0.377-0.117-0.574-0.117h-1.49c-0.991-0.004-1.94-0.399-2.641-1.1s-1.096-1.65-1.1-2.641v-1.49c0.003-0.209-0.037-0.417-0.119-0.61s-0.204-0.366-0.358-0.508l-1.326-1.312c-0.698-0.706-1.089-1.66-1.088-2.653-0.004-0.489 0.089-0.973 0.273-1.426s0.456-0.865 0.8-1.212l1.341-1.326c0.138-0.139 0.247-0.304 0.322-0.486s0.112-0.376 0.111-0.572v-1.49c-0.006-0.494 0.086-0.985 0.27-1.444s0.457-0.877 0.803-1.23c0.346-0.353 0.759-0.634 1.214-0.828s0.944-0.295 1.438-0.299h1.49c0.196 0.001 0.39-0.036 0.572-0.111s0.347-0.183 0.486-0.322l1.371-1.297c0.717-0.69 1.673-1.076 2.668-1.076s1.951 0.386 2.668 1.076l1.311 1.311c0.139 0.138 0.304 0.247 0.486 0.322s0.376 0.112 0.572 0.111h1.49c0.994 0.004 1.945 0.401 2.646 1.105s1.095 1.657 1.095 2.65v1.49c-0.001 0.196 0.037 0.391 0.111 0.572s0.183 0.347 0.322 0.486l1.326 1.326c0.695 0.705 1.084 1.655 1.084 2.645s-0.389 1.94-1.084 2.645l-1.326 1.312c-0.14 0.141-0.25 0.309-0.324 0.493s-0.111 0.381-0.108 0.58v1.49c0.008 0.494-0.082 0.986-0.264 1.445s-0.454 0.879-0.799 1.233c-0.345 0.354-0.756 0.637-1.211 0.832s-0.943 0.299-1.437 0.304h-1.49c-0.197 0.001-0.392 0.041-0.574 0.117s-0.346 0.189-0.484 0.33l-1.311 1.312c-0.357 0.353-0.781 0.631-1.247 0.817s-0.964 0.279-1.466 0.27zM9.113 5.040c-0.395 0-0.774 0.157-1.054 0.436s-0.436 0.659-0.436 1.054v1.49c0.002 0.49-0.094 0.975-0.28 1.428s-0.461 0.864-0.808 1.21l-1.311 1.326c-0.141 0.138-0.253 0.303-0.33 0.484s-0.117 0.377-0.117 0.574c-0.001 0.2 0.038 0.398 0.115 0.582s0.19 0.351 0.332 0.491l1.311 1.311c0.348 0.348 0.624 0.762 0.811 1.217s0.281 0.944 0.277 1.436v1.49c0 0.395 0.157 0.774 0.436 1.054s0.659 0.437 1.054 0.437h1.49c0.491-0.002 0.978 0.094 1.431 0.284s0.864 0.468 1.207 0.819l1.311 1.311c0.29 0.273 0.674 0.426 1.073 0.426s0.783-0.152 1.073-0.426l1.311-1.311c0.343-0.351 0.754-0.63 1.207-0.819s0.94-0.286 1.431-0.284h1.49c0.395 0 0.774-0.157 1.054-0.437s0.437-0.659 0.437-1.054v-1.49c-0.004-0.492 0.091-0.98 0.277-1.436s0.462-0.869 0.811-1.217l1.326-1.311c0.142-0.139 0.255-0.305 0.332-0.488s0.117-0.38 0.117-0.578-0.040-0.395-0.117-0.578c-0.077-0.183-0.19-0.349-0.332-0.488l-1.326-1.326c-0.346-0.346-0.621-0.757-0.808-1.21s-0.282-0.938-0.28-1.428v-1.49c0-0.395-0.157-0.774-0.437-1.054s-0.659-0.436-1.054-0.436h-1.49c-0.49 0.002-0.975-0.094-1.428-0.28s-0.864-0.461-1.21-0.808l-1.311-1.311c-0.139-0.144-0.306-0.259-0.49-0.337s-0.383-0.119-0.583-0.119c-0.2 0-0.399 0.040-0.583 0.119s-0.351 0.193-0.49 0.337l-1.311 1.311c-0.346 0.346-0.757 0.621-1.21 0.808s-0.938 0.282-1.428 0.28h-1.49z"></path>
<path fill="#2d4d76" style="fill: var(--color1, #2d4d76)" d="M14.702 16.605c-0.3-0.003-0.588-0.12-0.805-0.328l-2.474-2.489c-0.209-0.21-0.327-0.494-0.327-0.79s0.118-0.58 0.327-0.79c0.214-0.207 0.5-0.322 0.797-0.322s0.583 0.115 0.797 0.322l1.684 1.699 4.173-4.188c0.214-0.207 0.5-0.322 0.797-0.322s0.583 0.116 0.797 0.322c0.209 0.21 0.327 0.494 0.327 0.79s-0.118 0.58-0.327 0.79l-4.978 4.978c-0.211 0.207-0.494 0.324-0.79 0.328z"></path>
</symbol>
<symbol id="icon-partners" viewBox="0 0 35 32">
<path fill="#2d4d76" style="fill: var(--color1, #2d4d76)" d="M31.149 2.848c-3.928-3.95-10.41-3.754-14.15 0.352-3.74-4.106-10.222-4.302-14.149-0.352-3.906 3.89-3.773 10.295 0.252 14.049-2.059 1.966-0.879 5.5 1.923 5.844-0.168 1.919 1.465 3.679 3.397 3.646 0.118 2.112 2.239 3.624 4.271 3.066 0.667 2.517 3.873 3.377 5.712 1.524 1.045-1.038 1.875-1.693 1.928-3.266 1.726-0.048 3.219-1.562 3.246-3.287 1.742-0.027 3.261-1.546 3.288-3.288 1.808-0.027 3.375-1.659 3.291-3.501l0.992-0.992c3.804-3.804 3.804-9.994 0-13.797zM4.597 18.485l0.931-0.931c0.115-0.115 0.251-0.206 0.401-0.268s0.31-0.094 0.473-0.093c1.084-0.007 1.65 1.333 0.873 2.107l-0.931 0.931c-1.206 1.11-2.856-0.54-1.746-1.746zM7.194 22.974c0-0.33 0.128-0.64 0.362-0.873l0.932-0.932c0.114-0.115 0.25-0.206 0.4-0.268s0.31-0.094 0.472-0.093c1.094-0.002 1.648 1.336 0.873 2.108l-0.822 0.822c-0.251 0.285-0.596 0.477-0.983 0.471-0.664 0.014-1.248-0.571-1.235-1.235zM10.953 27.026c-0.479-0.46-0.479-1.287 0-1.746l0.822-0.822c0.479-0.569 1.32-0.643 1.856-0.11 0.481 0.481 0.481 1.265 0 1.746l-0.932 0.932c-0.481 0.482-1.265 0.482-1.746-0zM17.795 28.505l-0.931 0.931c-0.114 0.115-0.25 0.206-0.4 0.268s-0.311 0.094-0.473 0.093c-0.162 0-0.323-0.031-0.473-0.093s-0.286-0.153-0.4-0.268c-0.479-0.46-0.479-1.287 0-1.746l0.931-0.931c0.481-0.482 1.265-0.481 1.746-0 0.479 0.46 0.479 1.287 0 1.746zM27.617 18.601c-0.46 0.479-1.287 0.479-1.746 0l-4.851-4.851-1.541 1.542 4.851 4.851c0.481 0.482 0.481 1.265 0 1.746s-1.265 0.482-1.746 0l-4.851-4.851-1.542 1.542 4.851 4.851c0.481 0.481 0.481 1.265 0 1.746s-1.265 0.481-1.746 0l-0.001 0.001c-0.886-0.856-2.124-1.138-3.242-0.846-0.356-1.454-1.818-2.555-3.288-2.523-0.071-1.565-1.395-2.979-2.959-3.149 0.206-2.686-2.743-4.535-5.071-3.212-3.242-2.896-3.442-7.98-0.343-11.057 3.081-3.103 8.172-2.897 11.066 0.352l-2.695 2.695 2.16 2.159c1.659 1.659 4.215 1.887 6.121 0.685l6.573 6.574c0.481 0.481 0.481 1.265-0 1.746zM29.607 15.104l-0.332 0.332c-0.038-0.042-0.077-0.083-0.117-0.123l-8.029-8.029-0.771 0.771c-1.074 1.074-2.821 1.074-3.894 0l-0.618-0.618 3.047-3.047c7.402-6.813 17.526 3.317 10.714 10.714z"></path>
</symbol>
<symbol id="icon-objects" viewBox="0 0 32 32">
<path fill="none" stroke="#2d4d76" style="stroke: var(--color1, #2d4d76)" stroke-linejoin="round" stroke-linecap="round" stroke-miterlimit="10" stroke-width="1.76" d="M0.938 31.062h30.125"></path>
<path fill="none" stroke="#2d4d76" style="stroke: var(--color1, #2d4d76)" stroke-linejoin="round" stroke-linecap="round" stroke-miterlimit="10" stroke-width="1.76" d="M13.5 31.062v-21.875h-7.5v14.688"></path>
<path fill="none" stroke="#2d4d76" style="stroke: var(--color1, #2d4d76)" stroke-linejoin="round" stroke-linecap="round" stroke-miterlimit="10" stroke-width="1.76" d="M26 16.062l-7.5-3.75v18.75h7.5v-15z"></path>
<path fill="none" stroke="#2d4d76" style="stroke: var(--color1, #2d4d76)" stroke-linejoin="round" stroke-linecap="round" stroke-miterlimit="10" stroke-width="1.76" d="M9.75 23.875h-7.5v7.187h7.5v-7.187z"></path>
<path fill="none" stroke="#2d4d76" style="stroke: var(--color1, #2d4d76)" stroke-linejoin="round" stroke-linecap="round" stroke-miterlimit="10" stroke-width="1.76" d="M21 13.562v-8.875h-10v4.5"></path>
<path fill="none" stroke="#2d4d76" style="stroke: var(--color1, #2d4d76)" stroke-linejoin="round" stroke-linecap="round" stroke-miterlimit="10" stroke-width="1.76" d="M29.75 31.062h-3.75v-11.875l3.75 1.875v10z"></path>
<path fill="none" stroke="#2d4d76" style="stroke: var(--color1, #2d4d76)" stroke-linejoin="round" stroke-linecap="round" stroke-miterlimit="10" stroke-width="1.76" d="M22.25 19.188v1.875"></path>
<path fill="none" stroke="#2d4d76" style="stroke: var(--color1, #2d4d76)" stroke-linejoin="round" stroke-linecap="round" stroke-miterlimit="10" stroke-width="1.76" d="M9.75 12.938v1.875"></path>
<path fill="none" stroke="#2d4d76" style="stroke: var(--color1, #2d4d76)" stroke-linejoin="round" stroke-linecap="round" stroke-miterlimit="10" stroke-width="1.76" d="M9.75 18.562v1.875"></path>
<path fill="none" stroke="#2d4d76" style="stroke: var(--color1, #2d4d76)" stroke-linejoin="round" stroke-linecap="round" stroke-miterlimit="10" stroke-width="1.76" d="M22.25 24.812v1.875"></path>
</symbol>
<symbol id="icon-service-tick" viewBox="0 0 41 32">
<path stroke-linejoin="miter" stroke-linecap="butt" stroke-miterlimit="4" stroke-width="6.4833" d="M3.341 15.293l11.67 11.67 23.34-23.34"></path>
</symbol>
<symbol id="icon-triangle" viewBox="0 0 29 32">
<path fill="#d6effc" style="fill: var(--color1, #d6effc)" d="M0.842 0.8l26.4 15.242-26.4 15.242v-30.484z"></path>
</symbol>
<symbol id="icon-telegram" viewBox="0 0 36 32">
<path fill="#8dc8e5" style="fill: var(--color1, #8dc8e5)" d="M32.271 0.219c0.443-0.194 0.927-0.261 1.403-0.194s0.926 0.266 1.303 0.575c0.377 0.309 0.668 0.718 0.841 1.184s0.224 0.972 0.146 1.465l-4.062 25.639c-0.394 2.473-3.002 3.891-5.182 2.659-1.823-1.031-4.532-2.618-6.968-4.275-1.218-0.829-4.949-3.485-4.49-5.375 0.394-1.616 6.663-7.688 10.245-11.298 1.406-1.418 0.765-2.236-0.896-0.932-4.125 3.239-10.743 8.165-12.932 9.552-1.931 1.223-2.938 1.431-4.141 1.223-2.196-0.38-4.232-0.969-5.895-1.687-2.246-0.969-2.137-4.182-0.002-5.118l30.629-13.419z"></path>
</symbol>
<symbol id="icon-whatsapp" viewBox="0 0 32 32">
<path fill="#8dc8e5" style="fill: var(--color1, #8dc8e5)" d="M16 0c8.837 0 16 7.163 16 16s-7.163 16-16 16c-2.828 0.005-5.605-0.744-8.048-2.168l-7.946 2.168 2.163-7.949c-1.425-2.443-2.174-5.222-2.17-8.051 0-8.837 7.163-16 16-16zM10.547 8.48l-0.32 0.013c-0.207 0.013-0.41 0.067-0.595 0.16-0.174 0.098-0.332 0.221-0.47 0.365-0.192 0.181-0.301 0.338-0.418 0.49-0.592 0.769-0.91 1.714-0.906 2.685 0.003 0.784 0.208 1.547 0.528 2.261 0.654 1.443 1.731 2.971 3.152 4.387 0.342 0.341 0.678 0.683 1.040 1.002 1.765 1.554 3.869 2.675 6.144 3.274l0.909 0.139c0.296 0.016 0.592-0.006 0.89-0.021 0.466-0.024 0.921-0.15 1.333-0.37 0.21-0.108 0.414-0.225 0.613-0.352 0 0 0.069-0.045 0.2-0.144 0.216-0.16 0.349-0.274 0.528-0.461 0.133-0.138 0.248-0.299 0.336-0.483 0.125-0.261 0.25-0.758 0.301-1.173 0.038-0.317 0.027-0.49 0.022-0.597-0.006-0.171-0.149-0.349-0.304-0.424l-0.931-0.418c0 0-1.392-0.606-2.243-0.994-0.089-0.039-0.184-0.061-0.282-0.066-0.109-0.011-0.22 0.001-0.324 0.036s-0.2 0.092-0.28 0.167c-0.008-0.003-0.115 0.088-1.272 1.49-0.067 0.089-0.158 0.157-0.263 0.194s-0.218 0.042-0.326 0.014c-0.104-0.028-0.206-0.063-0.306-0.106-0.198-0.083-0.267-0.115-0.403-0.173-0.918-0.401-1.768-0.942-2.52-1.605-0.202-0.176-0.389-0.368-0.581-0.554-0.629-0.603-1.178-1.285-1.632-2.029l-0.094-0.152c-0.068-0.102-0.123-0.212-0.163-0.328-0.061-0.235 0.098-0.424 0.098-0.424s0.389-0.426 0.57-0.656c0.176-0.224 0.325-0.442 0.421-0.597 0.189-0.304 0.248-0.616 0.149-0.858-0.448-1.094-0.912-2.184-1.389-3.266-0.094-0.214-0.374-0.368-0.629-0.398-0.086-0.010-0.173-0.019-0.259-0.026-0.215-0.011-0.43-0.009-0.645 0.006l0.322-0.013 0.002 0.002z"></path>
</symbol>
<symbol id="icon-viber" viewBox="0 0 29 32">
<path fill="#8dc8e5" style="fill: var(--color1, #8dc8e5)" d="M21.834 0.824l0.522 0.119c1.363 0.309 2.615 0.996 3.617 1.983s1.714 2.238 2.058 3.612c1.228 4.912 1.228 10.057 0 14.97-0.344 1.374-1.056 2.624-2.057 3.612s-2.254 1.675-3.616 1.984l-0.524 0.117c-3.087 0.701-6.256 0.957-9.414 0.761l-4.206 3.819c-0.103 0.093-0.228 0.156-0.363 0.183s-0.275 0.017-0.405-0.029c-0.13-0.046-0.245-0.127-0.334-0.234s-0.148-0.236-0.17-0.374l-0.716-4.339c-1.284-0.361-2.45-1.060-3.382-2.026s-1.595-2.165-1.923-3.476c-1.228-4.912-1.228-10.058 0-14.97 0.344-1.374 1.056-2.624 2.057-3.612s2.253-1.675 3.617-1.984l0.522-0.117c4.846-1.099 9.871-1.099 14.716 0zM8.417 6.411c-0.286-0.042-0.578 0.016-0.827 0.166h-0.022c-0.578 0.344-1.098 0.777-1.542 1.286-0.37 0.433-0.57 0.871-0.622 1.293-0.031 0.25-0.009 0.503 0.063 0.742l0.028 0.016c0.416 1.24 0.958 2.432 1.62 3.554 0.854 1.576 1.905 3.034 3.127 4.338l0.037 0.053 0.059 0.044 0.035 0.042 0.043 0.038c1.289 1.244 2.729 2.315 4.285 3.189 1.779 0.983 2.858 1.447 3.507 1.641v0.009c0.19 0.059 0.362 0.086 0.536 0.086 0.552-0.041 1.075-0.269 1.485-0.647 0.501-0.45 0.924-0.98 1.254-1.569v-0.011c0.309-0.594 0.205-1.154-0.242-1.533-0.897-0.796-1.867-1.502-2.897-2.11-0.69-0.38-1.391-0.15-1.674 0.235l-0.605 0.775c-0.311 0.384-0.875 0.331-0.875 0.331l-0.015 0.009c-4.206-1.090-5.329-5.411-5.329-5.411s-0.052-0.588 0.337-0.888l0.758-0.619c0.364-0.3 0.616-1.010 0.226-1.71-0.595-1.046-1.29-2.030-2.075-2.939-0.171-0.214-0.411-0.359-0.678-0.411l0.003 0.002zM15.524 4.532c-0.204 0-0.4 0.082-0.544 0.229s-0.226 0.345-0.226 0.553c0 0.207 0.081 0.406 0.226 0.553s0.34 0.229 0.544 0.229c1.948 0 3.566 0.646 4.845 1.883 0.658 0.677 1.171 1.479 1.506 2.357 0.337 0.88 0.491 1.819 0.451 2.76-0.004 0.103 0.011 0.205 0.046 0.302s0.088 0.185 0.157 0.261c0.138 0.153 0.331 0.243 0.535 0.252s0.404-0.065 0.554-0.206c0.15-0.14 0.24-0.336 0.248-0.543 0.048-1.158-0.142-2.312-0.556-3.392-0.416-1.085-1.047-2.071-1.854-2.898l-0.015-0.016c-1.588-1.54-3.598-2.324-5.917-2.324zM15.471 7.102c-0.204 0-0.4 0.082-0.545 0.229s-0.226 0.345-0.226 0.553c0 0.207 0.081 0.406 0.226 0.553s0.34 0.229 0.545 0.229h0.026c1.405 0.102 2.427 0.577 3.144 1.357 0.735 0.803 1.115 1.802 1.086 3.037-0.005 0.207 0.072 0.408 0.213 0.558s0.335 0.237 0.539 0.242c0.204 0.005 0.402-0.073 0.55-0.216s0.233-0.34 0.238-0.547c0.037-1.621-0.478-3.020-1.497-4.136v-0.003c-1.043-1.135-2.473-1.735-4.195-1.852l-0.026-0.003-0.077 0.002zM15.442 9.72c-0.103-0.009-0.207 0.003-0.305 0.035s-0.189 0.085-0.267 0.153c-0.078 0.069-0.142 0.153-0.187 0.247s-0.072 0.197-0.077 0.302c-0.005 0.105 0.010 0.21 0.046 0.308s0.090 0.189 0.161 0.266c0.071 0.077 0.156 0.138 0.25 0.181s0.197 0.065 0.3 0.067c0.644 0.034 1.055 0.231 1.314 0.495 0.26 0.266 0.454 0.692 0.49 1.36 0.002 0.105 0.025 0.208 0.067 0.304s0.103 0.182 0.178 0.253c0.076 0.071 0.165 0.127 0.262 0.163s0.2 0.051 0.304 0.046c0.103-0.006 0.204-0.032 0.297-0.078s0.176-0.111 0.243-0.19 0.119-0.171 0.151-0.271c0.032-0.1 0.044-0.205 0.035-0.31-0.049-0.938-0.339-1.766-0.932-2.376-0.596-0.61-1.408-0.907-2.329-0.957z"></path>
</symbol>
<symbol id="icon-footer-logo" viewBox="0 0 225 32">
<path fill="#1c2445" style="fill: var(--color1, #1c2445)" d="M12.619 26.445c0.91-0.786 1.37-1.994 1.37-3.648v-0.364c0-1.63-0.472-2.85-1.405-3.66s-2.349-1.208-4.249-1.208h-4.502v10.052h4.525c1.923 0 3.351-0.387 4.26-1.173zM8.359 14.047c3.143 0 5.515 0.704 7.127 2.123s2.418 3.519 2.418 6.299v0.281c0 2.78-0.806 4.868-2.406 6.275s-3.984 2.111-7.139 2.111h-8.359v-17.090h8.359z"></path>
<path fill="#000" style="fill: var(--color2, #000)" opacity="0.2" d="M12.619 26.445c0.91-0.786 1.37-1.994 1.37-3.648v-0.364c0-1.63-0.472-2.85-1.405-3.66s-2.349-1.208-4.249-1.208h-4.502v10.052h4.525c1.923 0 3.351-0.387 4.26-1.173zM8.359 14.047c3.143 0 5.515 0.704 7.127 2.123s2.418 3.519 2.418 6.299v0.281c0 2.78-0.806 4.868-2.406 6.275s-3.984 2.111-7.139 2.111h-8.359v-17.090h8.359z"></path>
<path fill="#1c2445" style="fill: var(--color1, #1c2445)" d="M36.038 14.035v3.448h-11.076v3.378h10.57v3.413h-10.57v3.413h11.076v3.448h-14.91v-17.102h14.91z"></path>
<path fill="#000" style="fill: var(--color2, #000)" opacity="0.2" d="M36.038 14.035v3.448h-11.076v3.378h10.57v3.413h-10.57v3.413h11.076v3.448h-14.91v-17.102h14.91z"></path>
<path fill="#1c2445" style="fill: var(--color1, #1c2445)" d="M56.579 14.035v17.102h-3.684l-9.591-11.601v11.601h-3.684v-17.102h3.684l9.591 11.577v-11.577h3.684z"></path>
<path fill="#000" style="fill: var(--color2, #000)" opacity="0.2" d="M56.579 14.035v17.102h-3.684l-9.591-11.601v11.601h-3.684v-17.102h3.684l9.591 11.577v-11.577h3.684z"></path>
<path fill="#1c2445" style="fill: var(--color1, #1c2445)" d="M64.339 14.035h-3.869v17.090h3.869v-17.090z"></path>
<path fill="#000" style="fill: var(--color2, #000)" opacity="0.2" d="M64.339 14.035h-3.869v17.090h3.869v-17.090z"></path>
<path fill="#1c2445" style="fill: var(--color1, #1c2445)" d="M82.957 17.53l-10.547 10.111h10.547v3.495h-15.659v-3.495l10.535-10.111h-10.535v-3.495h15.659v3.495z"></path>
<path fill="#000" style="fill: var(--color2, #000)" opacity="0.2" d="M82.957 17.53l-10.547 10.111h10.547v3.495h-15.659v-3.495l10.535-10.111h-10.535v-3.495h15.659v3.495z"></path>
<path fill="#1c2445" style="fill: var(--color1, #1c2445)" d="M132.018 14.035v3.448h-11.076v3.378h10.558v3.413h-10.558v3.413h11.076v3.448h-14.911v-17.102h14.911z"></path>
<path fill="#000" style="fill: var(--color2, #000)" opacity="0.2" d="M132.018 14.035v3.448h-11.076v3.378h10.558v3.413h-10.558v3.413h11.076v3.448h-14.911v-17.102h14.911z"></path>
<path fill="#1c2445" style="fill: var(--color1, #1c2445)" d="M137.234 29.941c-1.428-1.009-2.154-2.487-2.154-4.434v-0.258h3.788v0.258c0 0.833 0.415 1.466 1.232 1.9s2.015 0.657 3.581 0.657c1.393 0 2.464-0.152 3.19-0.457s1.082-0.751 1.082-1.337v-0.176c0-0.469-0.207-0.833-0.611-1.079s-1.128-0.457-2.176-0.61l-4.271-0.622c-3.684-0.551-5.527-2.1-5.527-4.633v-0.258c0-1.619 0.691-2.874 2.084-3.777s3.34-1.349 5.85-1.349c2.659 0 4.686 0.493 6.091 1.454 1.393 0.974 2.095 2.381 2.095 4.223v0.235h-3.788v-0.235c0-1.525-1.462-2.299-4.398-2.299-1.313 0-2.314 0.141-3.005 0.422s-1.036 0.692-1.036 1.22v0.211c0 0.399 0.196 0.716 0.576 0.938s1.048 0.411 1.98 0.551l4.294 0.622c1.958 0.293 3.408 0.833 4.33 1.607 0.932 0.774 1.393 1.842 1.393 3.214v0.258c0 1.666-0.726 2.968-2.177 3.894s-3.5 1.396-6.137 1.396c-2.636 0-4.859-0.504-6.286-1.513z"></path>
<path fill="#000" style="fill: var(--color2, #000)" opacity="0.2" d="M137.234 29.941c-1.428-1.009-2.154-2.487-2.154-4.434v-0.258h3.788v0.258c0 0.833 0.415 1.466 1.232 1.9s2.015 0.657 3.581 0.657c1.393 0 2.464-0.152 3.19-0.457s1.082-0.751 1.082-1.337v-0.176c0-0.469-0.207-0.833-0.611-1.079s-1.128-0.457-2.176-0.61l-4.271-0.622c-3.684-0.551-5.527-2.1-5.527-4.633v-0.258c0-1.619 0.691-2.874 2.084-3.777s3.34-1.349 5.85-1.349c2.659 0 4.686 0.493 6.091 1.454 1.393 0.974 2.095 2.381 2.095 4.223v0.235h-3.788v-0.235c0-1.525-1.462-2.299-4.398-2.299-1.313 0-2.314 0.141-3.005 0.422s-1.036 0.692-1.036 1.22v0.211c0 0.399 0.196 0.716 0.576 0.938s1.048 0.411 1.98 0.551l4.294 0.622c1.958 0.293 3.408 0.833 4.33 1.607 0.932 0.774 1.393 1.842 1.393 3.214v0.258c0 1.666-0.726 2.968-2.177 3.894s-3.5 1.396-6.137 1.396c-2.636 0-4.859-0.504-6.286-1.513z"></path>
<path fill="#1c2445" style="fill: var(--color1, #1c2445)" d="M153.676 17.554v-3.519h16.96v3.519h-6.54v13.583h-3.869v-13.583h-6.551z"></path>
<path fill="#000" style="fill: var(--color2, #000)" opacity="0.2" d="M153.676 17.554v-3.519h16.96v3.519h-6.54v13.583h-3.869v-13.583h-6.551z"></path>
<path fill="#1c2445" style="fill: var(--color1, #1c2445)" d="M183.577 24.205l-2.74-6.357-2.74 6.357h5.48zM190.405 30.539v0.598h-3.834l-1.532-3.542h-8.394l-1.532 3.542h-3.834v-0.598l7.438-16.492h4.249l7.45 16.492h-0.012z"></path>
<path fill="#000" style="fill: var(--color2, #000)" opacity="0.2" d="M183.577 24.205l-2.74-6.357-2.74 6.357h5.48zM190.405 30.539v0.598h-3.834l-1.532-3.542h-8.394l-1.532 3.542h-3.834v-0.598l7.438-16.492h4.249l7.45 16.492h-0.012z"></path>
<path fill="#1c2445" style="fill: var(--color1, #1c2445)" d="M191.050 17.554v-3.519h16.959v3.519h-6.551v13.583h-3.857v-13.583h-6.551z"></path>
<path fill="#000" style="fill: var(--color2, #000)" opacity="0.2" d="M191.050 17.554v-3.519h16.959v3.519h-6.551v13.583h-3.857v-13.583h-6.551z"></path>
<path fill="#1c2445" style="fill: var(--color1, #1c2445)" d="M225.28 14.035v3.448h-11.076v3.378h10.558v3.413h-10.558v3.413h11.076v3.448h-14.922v-17.102h14.922z"></path>
<path fill="#000" style="fill: var(--color2, #000)" opacity="0.2" d="M225.28 14.035v3.448h-11.076v3.378h10.558v3.413h-10.558v3.413h11.076v3.448h-14.922v-17.102h14.922z"></path>
<path fill="#8dc8e5" style="fill: var(--color3, #8dc8e5)" d="M101.011 6.493v1.607h-1.67v-1.607c0-0.317 0.346-0.586 0.772-0.586h0.126c0.426 0 0.772 0.258 0.772 0.586zM103.752 20.592l-0.069-1.443-6.448 1.63c-3.903-1.208-6.724-4.751-6.724-9.161 0-5.466 4.352-9.9 9.717-9.9 3.086 0 5.838 1.466 7.611 3.753l-5.078 1.759-0.184-2.205-2.384-1.525-2.383 1.525-0.426 5.794 5.549-1.548 7.023 2.393c-0.023 4.176-2.579 7.566-6.182 8.915zM100.239 0.522c-6.010 0-10.88 4.962-10.88 11.084 0 9.618 10.88 19.518 10.88 19.518s10.881-10.451 10.881-19.518c0-6.123-4.87-11.084-10.881-11.084z"></path>
<path fill="#8dc8e5" style="fill: var(--color3, #8dc8e5)" d="M103.153 10.787l-6.021 1.595-0.104 2.147 6.228-1.642-0.104-2.1z"></path>
<path fill="#8dc8e5" style="fill: var(--color3, #8dc8e5)" d="M96.786 16.663l-0.104 2.146 6.908-1.736-0.104-2.111-6.701 1.701z"></path>
</symbol>
</defs>
</svg>
